<?xml version="1.0" encoding="utf-8"?>
<!-- Generator: Adobe Illustrator 16.0.0, SVG Export Plug-In . SVG Version: 6.00 Build 0)  -->
<!DOCTYPE svg PUBLIC "-//W3C//DTD SVG 1.1//EN" "http://www.w3.org/Graphics/SVG/1.1/DTD/svg11.dtd">
<svg version="1.1" id="Layer_1" xmlns="http://www.w3.org/2000/svg" xmlns:xlink="http://www.w3.org/1999/xlink" x="0px" y="0px"
	 width="1100px" height="940px" viewBox="0 0 1100 940" enable-background="new 0 0 1100 940" xml:space="preserve">
<g>
	<path fill="#CFB56A" d="M320.889,768.546h3.368c8.087,0,11.457,0.675,15.498,2.025c6.74,2.688,10.11,8.753,10.11,16.168
		c0,10.107-6.74,17.519-20.216,20.22l-1.348,0.673c8.759,3.365,14.151,10.104,14.151,18.194c0,8.759-6.067,16.168-16.174,17.519
		c-3.369,0.675-6.063,0.675-11.456,0.675c-2.021,0-4.715,0-5.39,0h-28.304l0.676-2.024c6.064-0.675,7.413-2.021,10.107-9.43
		l0.674-2.024v-1.352l14.824-46.487v-1.352l0.676-2.025c0.671-2.015,1.347-4.039,1.347-4.714c0-2.694-2.695-4.039-7.413-4.039
		l0.673-2.025L320.889,768.546L320.889,768.546z M299.999,841.319h6.74h2.695c10.105,0,14.151-0.669,17.521-4.714
		c3.366-3.371,5.39-9.436,5.39-14.824c0-6.064-2.695-10.784-7.413-12.806c-2.695-0.668-6.064-1.345-10.782-1.345h-3.369
		L299.999,841.319z M318.192,805.608h2.023c5.389,0,8.758-0.678,12.129-3.371c4.716-4.045,8.086-10.778,8.086-17.519
		c0-8.085-5.392-13.474-12.129-13.474c-3.37,0-5.392,0.67-6.739,4.039c-0.673,1.35-0.673,2.024-2.023,5.389
		c-0.671,2.027-1.347,3.371-1.347,5.392l-6.736,20.218h6.736V805.608z M359.971,844.695c-6.064,0-10.106-4.722-10.106-11.461
		c0-9.435,6.063-22.237,14.823-31.666c6.064-6.739,10.782-10.109,15.498-10.109c4.718,0,7.413,2.694,7.413,6.733
		c0,2.699-1.348,6.064-3.366,8.09c-3.371,4.04-9.435,8.09-17.522,12.805c-2.695,1.351-3.369,2.019-4.716,2.694
		c-1.348,4.045-2.695,10.783-2.695,13.474c0,3.375,2.019,5.396,4.042,5.396c4.042,0,8.758-4.046,14.152-12.131l0.671-1.35
		l1.35,0.675C373.447,838.63,366.036,844.695,359.971,844.695z M373.447,810.997c6.067-6.065,8.763-10.778,8.763-14.823
		c0-2.021-1.348-3.37-2.695-3.37c-2.697,0-6.067,2.7-9.434,8.766c-3.371,5.391-5.393,10.104-7.413,16.843
		C366.036,817.063,370.081,814.372,373.447,810.997z M396.362,833.911c0,0-1.348,3.369-1.348,4.045c0,0.674,0.672,0.674,0.672,0.674
		c1.347,0,6.065-4.719,11.457-13.479l0.672-0.675l1.347,1.351l-0.671,0.675c-7.413,11.455-14.152,18.194-20.216,18.194
		c-2.023,0-3.37-1.352-3.37-4.045c0-1.346,0.676-4.046,1.347-6.739l3.37-8.761l19.541-48.517c1.351-3.376,1.351-4.045,1.351-4.719
		c0-1.345-0.675-1.345-4.717-2.021h-1.35l0.674-1.35h16.173L396.362,833.911z M449.594,801.568c0,10.778-8.759,20.888-18.869,20.888
		c-1.347,0-2.019,0-3.365-0.675l-0.677,0.675c-2.693,2.021-4.042,3.37-4.042,4.715c0,1.351,1.349,2.02,6.737,4.046l6.065,2.019
		c7.414,2.021,10.107,4.046,12.132,6.739c1.347,1.346,2.019,3.37,2.019,5.396c0,7.407-8.087,12.129-20.887,12.129
		c-12.129,0-20.216-3.377-20.216-8.767c0-3.362,2.694-6.739,8.087-9.435l4.042-2.02c0.674,0,0.674-0.676,1.347-0.676
		c-3.371-2.021-4.718-3.37-4.718-6.064c0-3.369,2.695-6.063,8.087-10.104c-3.369-2.7-5.392-6.738-5.392-11.461
		c0-10.107,9.434-18.867,19.544-18.867c4.042,0,6.736,1.351,8.759,4.045c2.023-0.676,2.023-0.676,4.717-2.025
		c2.022-1.344,4.042-2.02,6.064-2.02s4.042,1.351,4.042,3.369c0,2.025-1.348,3.369-4.042,3.369c-1.349,0-2.021,0-4.042-0.674
		c-1.348-0.67-2.022-0.67-2.698-0.67c-0.671,0-1.347,0-2.694,0.67C449.594,798.868,449.594,799.543,449.594,801.568z
		 M422.641,839.306c-6.74,2.688-8.087,4.714-8.087,7.408c0,4.722,5.39,7.409,14.152,7.409c4.042,0,8.758-0.676,12.128-2.02
		c3.369-1.345,4.716-2.695,4.716-4.721c0-2.688-2.021-4.039-6.063-5.39l-6.065-2.021l-6.739-2.019c-0.674,0-1.347,0-1.347,0
		C424.661,837.956,423.989,838.63,422.641,839.306z M439.488,792.804c-2.695,0-5.393,2.025-7.413,5.39
		c-3.369,5.396-6.066,12.805-6.066,17.523c0,3.37,1.351,5.389,3.369,5.389c2.023,0,4.718-2.019,7.415-6.063
		c3.366-5.389,6.064-12.129,6.064-16.85C443.53,794.829,442.183,792.804,439.488,792.804z M469.809,838.63
		c-4.042,4.039-7.411,6.065-10.104,6.065c-2.023,0-3.371-1.352-3.371-4.045c0-1.346,0.673-4.722,2.023-7.416l0.671-2.019
		l1.348-2.696l11.457-26.951l0.671-1.351c0.676-0.676,0.676-1.351,0.676-2.025c0-0.669-0.676-0.669-0.676-0.669
		c-0.671,0-1.348,0.669-4.042,3.368c-2.694,2.695-5.392,6.739-7.411,9.431l-1.347-0.669c6.735-10.785,15.498-18.869,20.215-18.869
		c2.019,0,3.366,1.344,3.366,3.369c0,1.351,0,2.021-0.671,4.715c-0.677,1.351-1.348,4.045-2.695,6.063
		c-0.675,1.352-0.675,2.7-1.35,2.7l-10.107,26.953l-2.022,0.67c-0.672,1.352-0.672,1.352-0.672,2.025c0,0.676,0,0.676,0.672,0.676
		c0.676,0,2.022-0.676,5.394-4.722c2.021-2.694,3.369-4.714,4.716-6.063l1.348,0.675C476.549,831.217,473.18,835.255,469.809,838.63
		z M480.591,779.998c-2.693,0-5.389-2.688-5.389-5.388c0-3.364,2.695-5.391,5.389-5.391c3.371,0,5.393,2.695,5.393,5.391
		C485.983,777.311,483.285,779.998,480.591,779.998z M523.718,821.105c0,0.676-0.673,1.351-1.347,2.694l-2.695,7.416
		c-1.347,3.368-2.022,5.39-2.022,6.739c0,0.674,0,0.674,0.676,0.674c0.671,0,3.369-2.023,5.389-4.719
		c1.349-2.021,2.695-3.371,4.716-6.065l1.349,0.675c-1.349,2.696-4.716,6.734-7.411,9.437c-4.042,4.713-7.413,6.739-10.783,6.739
		c-2.021,0-3.369-1.352-3.369-3.376c0-0.669,0-2.015,1.348-5.391c0,0,3.37-10.104,3.37-10.778v-0.675
		c-2.694,3.369-6.736,8.759-8.761,10.778c-5.392,5.396-11.457,9.44-14.826,9.44c-2.02,0-3.367-2.026-3.367-4.722
		c0-2.694,0.673-5.39,2.694-10.107l1.349-3.365l6.74-16.179l1.347-2.69l2.021-4.044c1.351-3.369,1.351-4.045,1.351-5.396
		c0-0.669-0.677-1.346-0.677-1.346c-0.674,0-2.021,0.677-3.368,2.695c-2.021,2.025-4.042,4.715-6.065,7.416l-1.347,2.018
		c0,0,0,0-0.676,0.678l-1.347-0.678c6.063-10.783,14.151-18.867,18.869-18.867c2.023,0,3.37,1.351,3.37,4.721
		c0,2.694-1.347,6.739-3.37,12.803l-0.672,2.021l-7.416,18.867l-0.673,2.695l-1.346,3.368c-0.677,2.021-0.677,2.021-0.677,2.695
		c0,0.676,0.677,1.35,1.348,1.35c4.717,0,17.521-16.849,24.934-33.698l6.063-13.473h8.087L523.718,821.105z M609.297,827.171
		c-2.692,4.046-6.74,8.084-10.106,12.135c-4.045,3.363-7.408,5.391-10.111,5.391c-2.019,0-2.687-1.352-2.687-3.376
		c0-1.346,0.669-3.363,1.345-5.391c0.668-0.675,0.668-1.345,2.02-4.04c0.674-1.35,0.674-2.022,0.674-2.022l11.455-24.936
		l0.672-2.019c1.353-2.694,1.353-3.37,1.353-4.045c0-1.345-0.674-2.021-2.023-2.021c-1.352,0-3.362,1.346-6.739,4.722
		c-10.104,10.778-18.195,22.231-25.603,38.406c-1.352,2.693-1.352,2.693-2.021,4.045h-8.088c1.348-2.7,2.692-5.391,6.737-14.153
		c3.371-6.74,4.713-11.455,6.74-16.168c3.365-10.11,4.713-13.479,4.713-15.506c0-1.345-0.676-2.02-1.348-2.02
		c-1.347,0-4.041,2.02-7.412,6.069c-6.063,6.732-10.783,13.474-16.172,22.907c-0.677,2.021-2.021,4.716-4.716,8.761
		c-2.695,4.719-3.369,7.408-4.717,9.434h-8.087l8.759-20.889c0-0.675,0.676-1.351,1.35-3.369c2.695-6.739,5.392-12.805,6.734-16.844
		c0.677-2.7,1.353-4.051,1.353-4.72c0-0.677,0-0.677-0.676-0.677c-2.021,0-6.738,6.065-12.13,15.5l-1.348-0.676v-0.675
		c6.739-12.129,14.153-20.889,18.866-20.889c2.025,0,3.377,2.02,3.377,4.721c0,1.345,0,2.694-0.678,5.39
		c-0.674,2.024-2.023,6.063-2.699,8.759l-1.344,4.046c0,0-0.674,1.35-0.674,2.693c0.674-1.345,1.342-2.019,1.342-2.019l4.053-4.722
		c3.363-5.39,10.777-12.804,14.146-15.498c2.694-2.021,4.045-2.694,6.065-2.694c2.695,0,4.721,2.021,4.721,4.72
		c0,1.344-0.678,3.364-1.352,6.064c-0.674,2.688-2.025,7.408-4.047,11.454c-1.344,4.714-0.668,2.693-1.344,4.714l2.021-2.694
		c6.064-9.434,10.109-12.799,16.174-18.194c4.039-3.368,7.408-5.389,10.104-5.389c3.375,0,5.389,2.021,5.389,4.715
		c0,2.02-0.67,4.72-2.014,6.739l-1.351,3.369c0,0.677-0.678,1.35-0.678,1.35l-12.129,24.935l-0.674,2.02
		c-1.351,2.021-0.676,1.346-0.676,2.021c0,0.675,0.676,0.675,0.676,0.675c1.352,0,4.715-2.695,10.779-10.779l0.676-0.675
		L609.297,827.171z M661.184,827.846c-0.668,2.021-1.344,4.044-1.344,4.721l-1.35,4.039c0,0.676-0.676,1.352-0.676,2.024
		c0,2.021,2.024,2.021,7.413,2.689l-0.676,2.024h-25.606l0.676-2.024c6.74-0.669,7.414-1.346,12.129-14.818l15.498-45.15
		c0,0-2.021,0.675-4.043,1.352c-2.021,0.673-7.41,1.344-7.41,1.344v-1.344c7.41-2.703,14.822-6.74,22.912-11.455l1.346,1.344
		L661.184,827.846z M696.902,819.087c-6.74,0-12.13-5.389-12.13-12.128c0-7.416,4.714-18.869,11.451-25.608
		c5.392-5.39,10.781-8.761,15.502-8.761c8.082,0,13.474,7.408,13.474,18.194c0,22.238-19.545,45.821-45.822,54.587l-0.67-2.026
		c12.129-6.063,21.559-14.154,26.947-25.607C702.291,819.087,700.266,819.087,696.902,819.087z M712.396,775.961
		c-3.363,0-6.74,3.363-10.779,9.436c-4.037,6.731-7.414,17.518-7.414,24.258c0,4.719,2.022,7.408,6.063,7.408
		c4.046,0,7.414-2.689,10.783-9.431c4.047-8.089,6.74-17.522,6.74-24.258C717.789,778.656,715.096,775.961,712.396,775.961z
		 M746.092,835.93h2.697c6.731,0,7.406-0.675,8.758-4.713l2.025,0.673l-4.722,12.807h-35.719c2.025-5.391,4.045-9.44,7.416-14.829
		c5.391-7.41,10.103-12.806,22.908-24.258c10.785-9.436,14.154-14.149,14.154-20.214c0-5.396-3.369-8.085-8.76-8.085
		c-6.74,0-13.48,4.715-19.544,12.799l-2.694-1.345c6.737-10.107,16.176-16.175,26.283-16.175c8.752,0,14.147,4.721,14.147,11.455
		c0,4.045-1.346,8.083-4.045,11.459c-3.363,4.039-6.063,6.064-17.519,14.149c-15.5,11.451-20.895,17.518-24.258,25.602h18.867v0.675
		H746.092z M791.238,800.219c2.02-0.676,4.045-1.351,6.063-1.351c8.086,0,13.476,5.39,13.476,12.804
		c0,7.415-4.716,18.868-12.13,26.284c-5.391,5.389-10.104,7.415-14.817,7.415c-8.09,0-12.806-7.415-12.806-18.87
		c0-13.479,7.408-27.633,19.539-37.736c7.412-6.063,16.173-11.454,26.281-15.506l1.344,2.026
		C806.063,782.701,797.978,789.44,791.238,800.219z M795.959,802.237c-4.045,0-7.414,3.371-10.109,9.435
		c-4.721,8.766-7.416,16.85-7.416,22.913c0,4.721,2.021,8.084,5.396,8.084c3.362,0,7.408-4.039,10.776-10.779
		c4.041-7.413,7.416-16.848,7.416-21.566C802.699,805.608,799.322,802.237,795.959,802.237z"/>
	<path fill="#CFB56A" d="M326.279,546.174c53.236,0,94.341,33.691,94.341,88.275c0,52.561-39.086,96.359-95.688,96.359
		c-64.689,0-92.992-49.862-92.992-92.314C231.94,600.081,260.914,546.174,326.279,546.174 M330.997,720.03
		c20.887,0,62.667-13.479,62.667-78.842c0-50.538-32.346-84.906-69.407-84.906c-39.081,0-66.038,26.282-66.709,75.472
		C258.219,682.967,288.542,720.03,330.997,720.03z M475.875,709.92c1.347-10.104,1.347-28.3,1.347-51.211v-41.106
		c0-37.061,0-43.126-0.673-50.538v-16.846c2.695,0,30.323-0.675,44.476-0.675c23.584,0,68.054-2.021,96.364,26.955
		c12.131,12.13,22.908,31.669,22.908,59.974c0,29.649-12.129,52.562-25.608,66.036c-10.103,10.782-33.017,26.955-73.448,26.955
		c-20.216,0-64.019-2.694-66.038-2.694L475.875,709.92 M500.807,643.212c0,24.93,0,46.492,0.677,51.21
		c0,6.063,1.347,13.479,3.365,16.174c2.699,4.721,8.764,9.436,37.063,9.436c22.235,0,39.083-6.065,53.233-20.216
		c12.129-12.13,18.866-34.368,18.866-55.932c0-29.649-12.803-49.19-22.229-59.297c-22.916-24.261-46.499-25.61-74.799-25.61
		c-4.719,0-10.782,0.677-12.806,1.351c-2.021,0.675-2.693,2.021-2.693,4.716c0,8.087,0,30.323,0,48.52v29.65L500.807,643.212
		L500.807,643.212z M694.877,709.92c1.348-10.104,1.348-28.3,1.348-51.211v-41.106c0-37.061,0-43.126-0.674-50.538l-1.35-17.521
		c3.377,0,9.44,0.675,14.154,0.675c3.37,0,10.104-0.675,12.803-0.675l-0.674,17.521c-0.677,7.412-0.677,14.151-0.677,50.538v41.106
		c0,22.911,0,41.105,1.351,51.211l1.352,16.85c-5.395,0-8.09-0.676-14.83-0.676c-6.063,0-10.102,1.352-14.153,0.676L694.877,709.92z
		 M151.751,667.47c0-18.869,0-28.304,0-28.304c4.042,0,7.411,0.676,12.129,0.676c3.371,0,8.76-0.676,12.805-0.676v17.521
		c-0.676,7.411-0.676,14.823-0.676,24.259v26.277c0,10.779,0,10.779-3.369,12.807c-14.824,8.083-38.41,10.778-51.886,10.778
		c-22.239,0-57.278-4.04-80.864-26.278c-13.477-13.479-28.3-37.062-28.3-66.036c0-37.737,18.868-64.019,39.756-77.493
		c20.892-13.478,47.168-14.827,65.365-14.827c14.824,0,32.345,3.37,37.063,4.045c4.716,1.347,13.476,2.021,18.865,2.021
		c2.022,0,2.697,1.35,2.697,2.021c0,3.371-1.347,1.347-1.347,25.604c0,2.698-2.697,1.351-5.392-1.348c0,0-3.371-2.694-5.39-4.042
		c-8.086-7.412-24.262-18.193-54.583-18.193c-14.823,0-30.998,1.35-47.172,14.151c-13.476,10.781-23.583,32.346-23.583,59.974
		c0,33.018,16.846,57.277,24.933,65.364c18.865,18.192,37.063,23.582,59.298,24.259c8.762,0,18.868-0.677,24.261-4.046
		c4.042-2.021,5.389-4.716,5.389-8.761L151.751,667.47L151.751,667.47z M915.229,549.544c1.344,0,7.407,0.675,10.106,0.675
		c1.346,0,1.346,0,8.76,0l-11.459,27.628c-2.688,6.74-14.815,34.366-27.62,64.015c-14.832,34.366-25.607,59.976-30.996,71.431
		c-6.74,14.153-8.093,17.519-10.109,17.519c-2.697,0-4.723-3.364-8.762-14.823l-58.631-144.204l-8.755-22.237
		c4.039,0,12.13,0.675,14.818,0.675c2.701,0,12.129-0.675,14.83-0.675c0,0,6.063,19.544,9.428,28.976l43.133,113.209
		c13.474-31.671,43.796-106.469,48.517-123.315C910.508,564.367,915.229,549.544,915.229,549.544z M1059.43,717.335l-20.213-53.91
		c-0.674-0.673-0.674-1.348-2.018-1.348h-50.541c-1.353,0-2.025,0.675-2.701,2.021l-13.475,37.063
		c-2.019,6.063-9.433,25.607-9.433,25.607s-4.717,0-7.418,0c-2.688,0-6.738,0.676-9.426,0l10.104-25.607l55.257-145.554
		c2.698-8.083,4.719-9.435,6.063-9.435c1.353,0,3.375,2.021,6.064,8.763c3.377,8.76,41.106,105.121,55.256,140.836l11.461,30.997
		c-3.371,0-9.437,0-26.279-0.676L1059.43,717.335 M1033.822,651.295c1.352,0,1.352-0.672,0.676-1.347l-21.557-63.343
		c-0.677-2.02-1.351-2.02-2.701,0l-20.888,63.343c-0.678,1.347,0,1.347,0.668,1.347H1033.822z"/>
</g>
<path fill="#CFB56A" d="M574.729,219.886c0.625-1.252,1.252,0,2.505,1.252c1.252,1.878,1.878,3.13,1.878,5.009
	c0,4.382-1.878,9.391-6.888,11.269c-1.878,0.626-4.383,0-5.635,1.252c-1.878,1.252-1.878,3.13-3.757,3.757
	c-1.878,1.252-4.382,0-6.26,0.626c-2.505,0.626-3.758,2.504-6.889,0.626c3.131,0.626,4.384-1.878,6.889-2.504
	c3.756-0.626,5.008-0.626,6.887-3.756c0.626-1.252,1.252-1.878,2.504-2.504c1.878-1.252,3.757-1.252,5.635-1.878
	c1.878-1.252,3.131-1.878,3.756-4.382c0.627-1.878,0-4.383,0-6.887C574.729,220.512,574.729,219.886,574.729,219.886
	L574.729,219.886z"/>
<path fill="#CFB56A" d="M621.685,134.115c-3.756,1.878-6.887,5.634-7.513,9.391c0-3.13,1.252-6.887,1.252-10.017v-0.626
	c4.383-4.382,5.635-11.269,5.635-13.147c0-6.261,1.878-17.53-10.017-23.165l-5.635,0.626c13.772,3.756,12.521,13.147,12.521,21.912
	c0,3.756-1.879,10.017-4.383,13.147c0,0-3.757,3.13-4.383,2.504c0.626,0,1.879,0.626,3.757,0.626
	c-0.626,5.635-0.626,10.643,3.13,14.399c-1.252-1.252-1.878-2.504-1.878-4.382c1.878-5.009,6.261-7.513,11.271-8.139
	C624.815,135.993,622.311,134.741,621.685,134.115L621.685,134.115z"/>
<path fill="#CFB56A" d="M575.354,263.711c-0.625-0.626-1.252-1.878-1.878-2.504c-6.887-13.147-1.878-27.547,6.888-33.808
	l-4.383-5.634c0,0-1.252,3.756-1.252,4.382c0,1.878,0,3.13-0.627,4.382c-2.504,3.13-6.261,3.756-7.513,7.513
	c-1.252,3.13-1.252,6.261-1.252,9.391s0.626,6.887,1.252,10.017c0.626,1.252,3.757,10.017,5.009,10.017
	C572.226,266.841,573.478,266.215,575.354,263.711L575.354,263.711z"/>
<path fill="#CFB56A" d="M591.634,281.867c1.252,1.252,1.878,1.878,3.13,3.13c5.009,5.009,10.645,10.017,15.651,14.399
	c3.131,2.505,8.766,6.261,8.14,11.27c-0.626,2.504-2.505,4.383-3.757,6.261c-1.878,1.878-3.13,4.382-4.383,6.261
	c-5.634,8.766-10.018,18.782-13.146,28.8c-3.131,8.765-5.635,17.529-7.514,26.295c0,0.626,0,1.252-0.626,1.878
	s-3.13,3.131-3.756,4.383c-1.878,1.878-3.757,4.382-5.009,6.887l0,0c-1.878,3.756,2.504,6.262,2.504,10.644
	c0,2.505,0,5.009,0.627,7.514c0.626,3.756,0.626,6.887,1.252,10.644c0,1.878,0.626,3.131,0.626,5.009c0,0.626,0,1.878,0.626,2.504
	c0,0.626,0,0.626,0,1.252c0,0,0,0.627,0,1.253c0.626,0,0.626-1.253,0.626-1.253c0-0.626,0-1.252,0.626-1.878
	c0.626-1.252,0.626-3.13,1.252-4.382c1.252-3.757,1.879-7.515,2.505-11.271c0.626-1.878,0.626-3.131,1.252-5.009
	c1.878-10.017,4.382-21.912,6.262-25.669c0.626-1.878,1.878-3.13,2.504-5.008c6.261-11.896,13.146-23.791,20.034-35.062
	c3.757-5.634,7.513-11.269,11.896-16.902c3.13-4.384,10.643-10.019,8.765-15.651c-0.626-1.253-1.252-2.505-1.252-3.131
	c-1.252-3.13-3.131-5.635-4.383-8.139c-5.008-8.765-10.643-17.53-16.903-26.295c-1.879-3.13-5.009-6.261-7.513-9.391
	c0,0,3.756-2.504,3.756-1.878c6.262,8.765,12.521,17.53,18.156,26.294c3.13,5.009,6.261,10.017,9.391,15.025
	c3.131,5.635,6.262,11.27,1.879,16.903c-1.879,3.13-4.383,6.262-6.887,8.766c-6.261,8.14-11.896,16.277-18.156,24.417
	c-8.139,11.27-16.903,22.538-22.537,35.06c-0.628,1.252-2.506,19.408-3.758,23.165c-0.626,1.878-1.252,3.756-1.878,5.634
	c-1.252,3.131-1.879,6.262-3.131,8.767c-0.626,1.252-0.626,2.504-1.252,4.382c0,0.626-0.626,1.253-0.626,1.879
	c0,0,0,1.252-0.626,1.252l0,0c0,0,0-0.626-0.626-0.626c0-0.626-0.626-1.252-0.626-1.879c-0.626-0.626-0.626-1.878-1.252-2.504
	c-0.626-3.13-2.505-16.277-3.131-18.782c-1.252-4.382-6.261-10.017-5.635-14.399c0.626-3.13,11.896-8.765,12.521-11.896
	c1.252-3.13,1.252-6.887,1.879-10.018c1.252-6.261,1.252-8.765,3.13-15.024c3.13-12.521,7.514-25.669,15.651-36.313
	c2.505-3.13,5.009-5.635,7.513-8.139c3.131-3.13-1.878-5.009-4.382-6.887c-3.131-2.504-6.261-5.009-9.392-7.513
	c-4.382-3.756-8.766-6.887-12.521-10.643L591.634,281.867L591.634,281.867z"/>
<path fill="#CFB56A" d="M721.854,272.476c-1.877-8.139-1.252-14.399-1.252-13.773c-0.625,0.626-1.252-3.13-1.252-1.878
	c-1.253,3.13-2.505,7.513-1.253,14.399c1.253,10.017,4.384,17.53,8.767,26.295c14.398,28.799,3.756,53.842-8.767,58.851
	c6.261,20.034,18.156,38.814,20.034,60.729c1.879,20.66,5.635,33.809,10.018,50.711c-3.757-7.513-9.392-16.276-13.146-24.415
	c-9.391-22.539-15.65-44.451-20.66-53.217c-3.757-6.261-8.139-15.651-13.146-20.66c1.252,5.009,0,9.392-1.252,10.644
	c11.269,11.896,15.65,28.8,23.164,43.199c0,13.146,25.669,56.346,31.304,65.735c4.383,8.141,7.513,23.165,7.513,23.165h20.66
	c-0.626-1.252-4.383-7.513-6.261-9.392c-2.504-3.13-11.896-11.27-13.773-14.399c-3.756-5.635-6.887-11.269-9.391-16.902
	c-5.635-13.147-9.392-28.8-8.767-43.199c0.627-21.286-8.765-38.815-13.772-58.851c-0.626-3.131-1.878-8.766-1.878-8.766
	c6.887-8.765,21.912-30.677,3.13-59.476C726.864,293.136,724.359,281.867,721.854,272.476L721.854,272.476z"/>
<path fill="#CFB56A" d="M788.219,194.217c1.252-1.252,8.766-8.765,8.14-10.643c-0.627-1.878-6.888,1.252-13.147,4.383
	c-1.878-2.504-3.756-5.009-5.009-6.261c0,0,0,0-0.626-0.626c5.635-3.13,10.644-6.26,10.018-7.513
	c-0.626-3.13-10.644-3.13-21.286-1.878c-53.842-34.434-128.344-0.626-143.996,58.85c-0.625,1.878,0.627,8.765,0.627,10.643
	c-0.627,7.513-7.514,13.773-7.514,13.773c0.626,0,3.757,0.626,3.757,0.626c0,3.13,0,1.878,0.626,5.008
	c0.626,0.626,3.756,5.008,3.756,5.008c0-1.878,0-4.382,0-6.26c3.758-63.233,67.615-111.44,123.336-83.893
	c9.392,4.382,16.277,10.643,21.912,17.53c-0.625-0.626,1.252,13.147,0.627,12.521c1.252,5.008,0.625,4.382,0,10.017
	c0,2.504-3.131,3.756-5.636,11.895c-1.878,7.513-3.13,56.346-2.504,58.851c1.252,4.382-1.252,4.382-3.757,6.887
	c-1.878,2.504-3.756,4.382-6.887,5.008c-4.383,0.625-2.504-3.756-14.399-5.635c-1.878,0-5.009-19.408-5.635-23.164
	c-1.878-22.539-21.286-46.329-22.538-49.459c0,0-1.252,8.765-0.626,8.765c1.252,2.504,15.024,25.669,16.903,30.051
	c2.505,5.009,3.757,10.644,5.009,15.652c0.626,3.13,1.878,19.408,3.757,21.286c2.504,2.504,5.634,3.755,9.391,3.755
	c2.504,0,4.383,5.636,8.766,5.01c6.261-0.626,6.261-5.01,8.14-6.261c8.139-6.261,5.008-18.782,5.008-23.165
	c0.626-13.147,3.131-38.19,3.757-41.946c1.879-10.643,3.131-5.009,5.01-8.765c1.252-2.504-1.254-18.156,0-19.408
	C775.697,201.73,785.088,197.348,788.219,194.217L788.219,194.217z"/>
<path fill="#CFB56A" d="M520.888,164.166c0-2.504,3.758-2.504,5.01-3.756c2.504-1.252,2.504-3.756,2.504-6.26
	c0-6.887-2.504-14.4,1.879-20.661c4.382-5.634,10.017-10.643,16.276-13.147c9.392-3.756,18.782-7.513,27.548-11.895
	c1.878-0.626,3.131-1.878,5.009-2.504c2.504-0.626,4.383-1.252,6.887-1.878c4.383-1.252,8.765-2.504,13.147-4.383
	c1.878-0.626,3.756-1.878,5.009-3.13c1.252-0.626,2.504-1.878,4.382-1.252c0.626-1.252,1.252-3.756-0.626-4.382
	c-3.13-1.878-5.009,1.878-6.261,3.756c-2.504,2.504-5.636,3.756-8.766,5.008c-3.131,1.252-6.261,2.504-9.391,3.756
	c-3.757,1.878-7.514,2.504-11.271,3.757c-11.27,4.382-23.165,7.513-33.182,13.773c-4.383,2.504-10.018,6.261-12.521,10.643
	c-3.131,5.008-1.879,9.391-1.253,15.025c0,3.756,0.626,6.261-1.878,9.391C520.888,159.158,520.262,160.41,520.888,164.166
	L520.888,164.166z"/>
<path fill="#CFB56A" d="M554.069,237.416c0,0.626-0.626,0.626-0.626,1.252c-2.505,3.13-6.262,1.252-9.392,0.626
	c-1.879-0.626-3.757-0.626-5.009,0.626c1.878-1.252,1.878-2.504,4.383-2.504c1.878-0.626,5.008,0.626,6.261-0.626
	c1.879-1.252,1.879-4.382,3.757-5.635c1.878-1.252,3.757-1.878,6.261-2.504c6.887-1.252,4.383-6.261,6.887-10.644
	c0.626-1.878,2.504-3.13,4.383-4.382c-1.879,1.252-1.879,6.261-2.505,8.765s-1.878,6.261-4.382,7.513
	C559.078,231.781,555.947,230.529,554.069,237.416L554.069,237.416z"/>
<path fill="#CFB56A" d="M582.242,94.673c-5.009,3.756-10.018,6.261-15.651,8.765c-11.27,4.383-23.164,7.513-33.182,13.773
	c-10.018,5.635-18.782,15.026-20.034,26.921c-0.626,4.383,3.757,11.896,1.878,15.026c-1.878,4.382-10.643,4.382-13.773,5.008
	c-8.139,3.13-14.398,8.139-13.146,14.4c1.253,6.26,1.879,8.139,0.626,11.895c-1.252,5.635-7.513,5.009-11.269,8.139
	c-5.636,3.756-5.636,6.887-6.262,13.773c-0.626,6.26-5.009,6.26-8.139,10.017c-3.757,3.756-2.505,6.887-3.757,11.269
	c-0.626,3.13-1.878,5.008-4.383,5.635v0.626c5.635,0.626,5.635-6.261,6.261-9.391c1.252-5.008,2.505-6.887,7.513-9.391
	c2.505-1.252,6.261-1.252,6.887-3.756c2.506-5.635-1.878-10.017,3.132-15.025c3.757-3.756,10.017-3.13,13.772-6.887
	c4.383-5.009,0.626-11.27,0.626-13.147c-0.626-4.383,0.626-10.643,5.635-13.773c1.879-1.252,6.888-1.878,11.271-1.878
	c1.878,0,4.382,0,6.26-1.252c1.253-0.626,1.879-1.252,2.505-1.878c3.13-3.756,1.252-7.513,0.626-12.521
	c-1.252-15.025,8.14-28.799,21.912-34.434c9.393-3.756,18.782-7.513,27.547-11.895c5.636-2.504,11.271-6.887,16.904-10.017
	c4.382-2.504,12.521-6.261,16.903-2.504C602.902,82.151,585.373,92.794,582.242,94.673L582.242,94.673z"/>
<path fill="#CFB56A" d="M520.262,202.356c1.878,0,2.504-0.626,4.384-1.252c4.382-2.504,6.261-7.513,7.513-11.895
	c2.504-12.521,18.156-25.043,32.556-31.304c7.513-3.13,21.912-16.903,25.668-25.668c-16.277,6.887-36.938,16.278-49.459,33.182
	l-1.878,1.252c2.504-1.252,5.009-8.765,6.887-11.269c4.383-4.383,9.392-8.139,14.399-11.896c6.261-3.756,12.521-7.513,18.782-10.643
	c5.008-2.504,12.521-2.504,13.772-8.765c6.262,10.644-16.903,33.182-25.669,36.938c-16.903,7.513-28.799,13.147-33.808,28.799
	c-1.252,5.009-4.383,10.643-9.392,13.147c-0.627,0-4.383,1.252-6.261,0.626c-2.505-1.252-8.14-3.13-9.392-2.504
	c1.252-1.252,2.505-1.878,5.009-1.252C514.001,200.478,517.758,202.356,520.262,202.356L520.262,202.356z"/>
<path fill="#CFB56A" d="M505.862,182.322c0-0.626,0-1.878,0.626-2.504c1.252-3.756,4.383-6.261,8.139-6.887
	c3.757-0.626,7.513,2.504,11.271,2.504c1.878,0,3.757-1.252,5.009-2.504c2.504-2.504,4.382-6.261,5.008-10.017
	c2.505-12.521,17.53-26.921,31.93-31.303c16.904-5.635,26.295-19.408,25.669-25.669c-16.276,6.887-36.938,16.278-49.459,33.182
	l-1.879,1.252c2.505-1.878,5.009-9.391,6.887-11.895c4.384-4.383,9.393-8.139,14.399-11.896c6.261-3.756,12.521-7.513,18.782-10.643
	c5.009-2.504,12.521-2.504,13.772-8.765c6.262,10.644-6.261,28.799-25.669,36.938c-16.902,7.513-28.799,13.147-33.807,28.799
	c-1.879,5.635-4.383,12.521-10.645,14.399c-4.383,1.252-8.139-3.13-12.521-1.252c-3.757,1.252-4.383,5.008-5.009,8.765
	c-1.252,6.887-7.514,5.009-10.018,10.018c0-3.757,3.131-3.757,5.01-5.635C506.488,186.705,505.862,184.826,505.862,182.322
	L505.862,182.322z"/>
<path fill="#CFB56A" d="M514.001,206.113c-0.626,0-1.252,0-1.878,0c0,1.252,2.504,1.252,3.13,1.878
	c1.879,1.252,2.505,2.504,4.383,3.756c1.252,1.252,3.13,1.878,5.009,2.504c3.757,1.252,8.14,0.626,11.896-1.252
	c0.626-0.626,1.252-0.626,1.878-1.252c28.173-21.912,27.547-45.077,44.45-63.232c-2.504,1.252-5.635,2.504-5.635,2.504
	c-5.635,5.009-15.025,40.694-39.441,57.599c-3.131,2.504-7.513,3.756-11.271,3.13c-1.878,0-3.131-0.626-5.009-1.252
	s-2.504-1.878-4.382-2.504c-0.627-0.626-1.253-0.626-1.879-1.252S514.001,206.113,514.001,206.113L514.001,206.113z"/>
<path fill="#CFB56A" d="M484.576,238.042c2.504-6.887,9.391-3.13,14.398-3.13c8.14,0,8.766-6.26,10.644-11.895
	c2.505-6.261,16.277-3.13,22.539-3.13c8.765,0.626,11.27,1.252,18.156-4.382c8.139-6.261,3.756-20.66,8.765-28.799
	c-2.505,3.756-6.261,4.382-7.513,10.017c-0.626,3.756-1.88,12.521-4.384,16.278c-5.635,6.887-8.139,5.634-16.902,5.008
	c-5.636,0-18.156-4.382-21.286,0.626c-3.757,5.009-2.505,11.896-10.019,13.147c-5.009,0.626-12.521-5.008-15.65,6.261
	C483.324,238.668,484.576,238.668,484.576,238.042L484.576,238.042z"/>
<path fill="#CFB56A" d="M508.366,237.416c-3.13,0.626-5.635,0.626-8.14-0.626c-1.252-0.626-2.504-1.252-3.756-1.878
	c-1.253-0.626-2.505-0.626-3.757-1.252c0-0.626,1.878,0,2.504,0s1.879,0.626,2.505,0.626c2.504,0.626,5.636,1.878,8.14,1.252
	c8.139-1.878,5.009-11.896,11.896-14.4c5.009-1.878,11.27,0,15.651,1.878c31.93,10.643,45.077-18.782,32.556-35.686
	c-1.252-1.252-2.505-7.513-1.252-11.269l5.009-8.139c-4.383,10.643-2.505,17.53-1.253,19.408
	c14.399,25.043-11.269,50.085-35.06,37.564c-5.009-2.504-11.896-4.382-16.903-0.626
	C512.749,229.277,515.879,235.538,508.366,237.416L508.366,237.416z"/>
<path fill="#CFB56A" d="M521.514,271.224c1.252,3.756,6.262,0.626,8.767,1.252c1.878,0,2.504,1.878,4.382,1.878
	c1.879,0,3.757-2.504,6.261-2.504c3.757-0.626,5.635,3.13,9.393,3.756c4.382,0.626,5.634-3.756,8.139-6.26
	c5.635-6.261,10.017-1.878,16.277-5.635c4.383-2.504,3.757-10.017,5.009-14.399c1.252-5.009,4.383-8.765,9.391-10.017
	c5.009-1.252,10.019,0,14.399-0.626c2.505,0,5.635-0.626,7.514-1.878c3.756-2.504,4.382-6.887,4.382-11.896
	c0.626,1.878,1.252,6.261-1.252,10.644c-2.504,4.382-8.139,6.887-13.772,7.513c-7.514,0.626-13.773-1.252-18.156,6.261
	c-2.504,4.382-0.626,10.643-3.756,15.025c-3.758,4.382-9.393,1.878-14.399,4.382c-3.131,1.878-3.757,3.757-5.635,6.887
	c-2.505,3.756-5.635,5.634-9.393,3.13c-3.13-1.878-5.008-3.13-8.139-3.756c-2.504,0-5.009,1.878-7.513,1.252
	c-1.252,0-1.878-1.252-3.13-1.252c-1.88-0.626-5.636,0-7.514-1.252C520.888,273.728,522.14,272.476,521.514,271.224L521.514,271.224
	z"/>
<path fill="#CFB56A" d="M608.537,95.925c-0.626,0.626-1.252,0.626-1.252,1.252c-1.252-1.252-0.626-2.504,0.626-3.756
	c3.757-5.635,10.644-2.504,16.276-1.878c4.384,0.626,3.132-3.13,5.01-5.635c1.252-1.878,4.383-0.626,5.009,0.626
	c1.252,1.878-1.252,6.887,0.626,6.887c0.626,1.878-1.878,1.878-3.13,1.252c-1.253-1.878,0.626-2.504,1.252-3.756
	s0-3.756-1.252-3.756c-1.879,0-1.879,2.504-2.505,3.756c-1.253,1.252-3.131,1.878-5.01,1.878c-2.504,0-5.008-1.252-7.513-1.878
	C612.92,91.542,610.415,93.421,608.537,95.925L608.537,95.925z"/>
<path fill="#CFB56A" d="M606.659,89.664c0.626-2.504,2.504-4.382,4.383-5.634c3.13-1.878,7.513-1.252,10.017,0.626
	c1.253,0.626,5.636,4.382,5.01,6.261c-2.505,0.626-3.132-3.13-4.384-4.383c-2.504-1.252-6.261-0.626-8.765,0.626
	c-1.252,0.626-2.505,1.878-3.757,3.13l-2.504,4.383h-0.626C605.407,93.421,606.033,91.542,606.659,89.664L606.659,89.664z"/>
<path fill="#CFB56A" d="M573.478,93.421c3.757-1.252,5.636-3.131,8.14-6.261c1.252-1.878,3.131-3.13,4.383-3.757
	c1.252-0.626,2.504-1.252,3.756-0.626c1.253,0.626,1.879,1.878,2.505,1.878c3.13,0.626,5.009-3.756,8.766-2.504
	c3.131,1.252,3.131,5.635,3.757,8.139c1.252,0.626,1.878,1.252,2.504,2.504c1.252-3.756,0.626-8.139-1.878-11.269
	c-2.505-3.13-5.635-3.756-9.393-1.878c-3.756,1.878-7.513-0.626-10.643,1.252c-2.505,1.252-4.383,4.382-5.635,6.261
	c-2.505,2.504-4.383,3.756-8.14,2.504s-6.887,1.878-7.513,5.635c-0.627,2.504-0.627,7.513-3.757,8.765
	c3.13,1.252,4.383-1.878,5.009-4.383C567.217,95.925,569.721,94.047,573.478,93.421L573.478,93.421z"/>
<path fill="#CFB56A" d="M481.445,224.269c5.635,0,6.261-6.261,12.521-7.513c6.887-1.252,2.505-11.269,17.53-11.269
	c1.252,0,2.504,0.626,3.756,0.626c1.253,0,1.879,0.626,2.505,1.252c0,0.626,0.626,0.626,0.626,1.252c0.626,0.626,0,0.626,0,1.252
	c-3.757-1.878-8.139-3.13-12.521-1.252c-3.131,1.252-5.01,4.382-6.262,7.513c-1.878,6.261-4.383,3.756-7.513,5.008
	C488.332,223.643,486.454,227.399,481.445,224.269L481.445,224.269z"/>
<path fill="#CFB56A" d="M436.369,250.563c-1.253,0-3.131,0-4.383,0c-25.042-1.252-33.183-10.017-51.963-0.626
	c-0.626,0-1.252,0.626-1.252,0.626c-18.782,10.017-11.895,26.921-24.417,36.938c-11.269,9.391-31.303,14.4-40.694,21.913
	c-5.635,4.382-8.139,11.896-8.765,15.025c-1.878,7.513-0.626,17.529,5.009,26.921c4.382,7.513-3.13,11.896-1.252,19.407
	c1.878-5.635,5.635-8.765,6.261-13.772c0.626-4.383-0.626-8.14-3.13-11.896c-3.13-4.383-4.382-13.772-3.756-19.407
	c1.252-6.888,8.765-11.271,16.278-14.399c18.782-7.513,36.938-18.782,41.32-36.938c6.887-28.173,34.434-27.547,53.216-23.791
	c-12.521,0.626-23.791,2.504-34.434,9.391c-10.643,6.887-15.026,23.165-18.782,28.173c-21.912,23.791-49.459,25.668-48.207,70.746
	c0,2.504-3.13,9.391-4.382,12.521c-1.252,3.131-2.504,6.262-1.878,9.392c0,1.252,0.626,6.261,4.382,7.513
	c-1.252-1.878-2.504-4.382-2.504-6.887c0-3.13,1.252-4.382,1.878-7.513c1.252-3.757,2.504-6.888,3.756-10.644
	c1.878-5.635,2.504-11.896,3.13-18.156c2.504-26.921,20.034-33.808,43.825-48.207c5.635-3.756,8.139-8.765,10.017-13.773
	c0.626-2.504,1.878-5.635,1.878-8.139c0.626-3.13,1.252-6.887,3.756-9.391c0.626-0.626,5.008-3.756,5.634-4.382
	c6.887-5.008,15.652-6.261,23.791-7.513c6.887-1.252,12.521-0.626,18.782-0.626c0.626,0,1.252,0,1.878,0.626
	c-9.392,0.626-20.034,2.504-30.051,6.261c-1.878,0.626-3.756,1.252-5.009,2.504c-1.252,0.626-2.504,1.878-3.756,2.504
	c-6.887,3.756-9.391,10.017-10.643,16.904c-1.252,8.139-3.13,15.652-11.269,19.409c-53.216,25.042-39.442,45.075-46.329,61.354
	c-4.382,9.391-7.513,17.529-5.009,27.547c1.878,6.261,13.774,21.912,40.695,25.042c-13.147-6.261-43.199-12.521-38.19-38.188
	c1.878-8.767,8.765-23.165,10.017-33.809c0.626-3.757,2.504-6.887,5.009-10.644c9.391-12.521,28.173-15.651,38.816-26.921
	c6.887-6.261,10.017-13.773,11.896-21.912c0.626-3.756,1.878-13.773,10.643-18.782c4.382-2.504,10.017-4.382,15.651-5.634
	c4.383-1.252,10.018-1.252,15.026-1.878c-1.254,0-2.506,0.626-3.132,0.626c-1.878,0.626-3.756,1.252-5.635,1.878
	c-3.756,1.252-7.513,3.13-11.269,4.382c-7.513,3.13-14.399,8.765-15.026,14.399c-5.634,32.556-31.929,39.442-50.711,60.729
	c-2.504,2.505-3.757,5.635-4.383,8.139c-1.252,3.132-1.252,5.636-3.756,9.393c-11.895,19.408-10.017,53.842,25.043,49.459
	c-15.652-2.504-31.304-13.773-30.051-28.173c1.878-10.019,8.765-18.782,11.895-26.295c3.756-7.514,5.009-11.896,10.643-15.651
	c22.539-15.652,41.947-27.547,42.573-49.459c0-8.765,6.887-15.652,12.521-18.782c6.26-3.13,12.521-5.634,19.408-7.513
	c-2.504-0.626-14.398,5.635-23.164,11.895c-4.383,3.13-8.765,14.4-9.391,21.913c-1.252,24.417-16.278,32.555-39.442,46.955
	c-11.269,6.887-18.156,22.539-19.408,33.809c-0.626,6.261,0.626,13.146,6.26,18.155c3.13,2.505,6.887,3.757,10.643,5.01
	c6.887,1.878,8.765,2.504,12.521,7.513s6.261,5.635,12.521,8.139c-5.635-5.635-5.009-11.896-10.017-16.903
	c-4.382-3.757-11.269-3.131-16.278-6.261c-5.008-3.131-6.887-8.139-7.513-12.521c-1.878-12.521,5.635-25.043,16.278-33.809
	c1.252-1.252,3.13-1.252,5.008-1.878c9.391-3.757,18.156-8.766,24.417-15.651c4.382-5.009,7.513-10.644,8.765-16.277
	c1.252-3.757,1.252-7.513,1.252-10.644c0-4.382,0.626-8.14,1.252-13.147c2.504-9.391,10.017-14.399,15.025-18.156
	c3.13-2.504,6.887-3.756,10.643-5.008c1.879-0.626,8.14-2.504,8.14-2.504s6.261-6.887,6.887-8.139
	C442.003,251.189,436.995,250.563,436.369,250.563L436.369,250.563z"/>
<path fill="#CFB56A" d="M589.129,375.777c0,0,0.626-6.262,0.626-6.888c-18.155-1.253-44.45-6.261-55.72-10.018
	c-0.626,0-0.626-15.025-12.521-23.164c-1.252-1.253,1.252,4.382,1.88,10.017c1.252,7.514,0.625,16.904,0.625,18.156
	c0,20.034-9.392,57.598-9.392,58.852c1.252,6.26,1.879,11.895,12.521,18.78c16.277,10.645,45.702,40.694,46.328,43.199
	c-32.556-25.043-55.72-38.815-71.997-43.199c-5.009-1.252-10.018-58.85-36.313-78.884c-13.146-10.018-27.547-18.782-33.182-30.052
	c-16.278-32.556-6.262-71.998,36.312-88.901c33.808-13.147,82.017,1.878,99.545,7.513c0.626,0,0.626-3.756,0-3.756
	c-13.772-5.634-65.737-22.539-106.432-7.513c-45.703,16.278-58.224,60.103-33.809,100.17c15.652,25.669,52.591,28.8,56.974,75.128
	c0.626,10.019,1.878,16.278,1.878,20.66c0,8.14,6.261,10.645,10.644,11.896c13.147,1.879,82.016,38.189,87.022,57.599
	c0.627,1.878,0,4.382-1.252,5.635h23.791c0-1.879-5.009-10.018-7.513-13.146c-5.636-8.767-45.703-38.816-49.461-41.946
	c-23.789-22.539-25.668-39.442-25.668-42.573c0-1.252,6.888-43.824,7.514-47.581c0,0,0-0.626,0,0c0.626,0-0.626-11.27,0-10.643
	c0.626,0,3.13,11.895,3.756,11.895C546.557,370.769,578.486,375.777,589.129,375.777L589.129,375.777z"/>
<path fill="#CFB56A" d="M599.146,376.403l4.383-6.888c0,0,23.165,0.626,34.434-3.131c0,0,23.165,26.295,31.93,34.435
	c6.262,5.635,22.539,21.286,25.67,23.165c3.13,1.878,5.635,5.008,6.261,8.765c0.626,3.13-1.878,5.635-3.757,8.139
	c-1.879,3.132-8.14,16.904-10.018,21.286c1.878,0,24.417-27.547,20.66-34.434c-5.009-9.392-10.645-18.781-16.277-27.547
	c-3.757-6.262-7.514-11.896-11.896-17.529c-1.252-1.253,4.382-5.009,8.139-10.018c3.757-5.636,6.261-13.147,6.887-12.521
	c0,0,3.131,10.018,0.626,15.025c-0.626,2.505-5.635,7.514-5.009,8.14c7.514,11.896,15.652,30.677,18.156,35.687
	c1.878,3.757,6.261,7.513,6.261,12.521c0.626,6.887-16.276,26.295-20.66,30.677c-6.261,6.262-10.018,13.773-15.024,19.408
	c-3.131,2.505-21.913,13.773-21.913,13.773c0.626-1.878-0.626-20.66-0.626-23.164c0,0,18.156-2.504,19.408-3.758
	c5.635-5.008,9.392-15.024,13.146-21.285c1.878-3.757,5.009-7.514,5.635-11.896c0.626-5.008-5.009-8.139-8.139-10.643
	c-8.765-5.636-26.295-21.912-31.304-25.669c-5.009-4.384-20.034-18.782-21.286-21.912
	C623.563,377.655,599.146,376.403,599.146,376.403L599.146,376.403z"/>
<path fill="#CFB56A" d="M405.691,381.411C406.317,381.411,405.691,381.411,405.691,381.411L405.691,381.411z"/>
<path fill="#CFB56A" d="M475.812,383.916c-7.514-8.766-41.32-35.06-41.32-35.06c-1.252,2.504-2.504,5.634-4.382,8.139
	c-10.018,13.772-24.417,21.912-25.669,21.912c-3.13,0.626-6.261,2.504-8.139,5.009c-2.504,3.13-2.504,8.139-1.252,11.269
	c4.382,10.019,6.887,31.931,6.261,41.321s0.626,17.529-3.13,26.294c-3.13,10.019-22.539,10.019-23.791,10.019l10.017,21.285
	c1.878-1.252,11.269-8.139,13.146-11.896c3.756-8.765,3.756-8.765,6.261-15.025c1.878-4.383,9.391-23.164,10.643-29.425
	c1.878-10.018,2.504-20.034,2.504-21.286c0,0,0.626-8.766,1.252-10.018s2.504-3.13,3.757-3.756
	c1.878-0.627,11.27-1.879,13.773-1.253c1.878,0,23.79,1.879,35.686-8.766C472.055,392.681,478.315,386.42,475.812,383.916
	L475.812,383.916L475.812,383.916z M423.222,390.803c-6.887-0.626-8.765,7.514-9.391,8.766c-0.626,0.626-1.252,16.903-2.504,29.425
	c-0.626,5.635-1.878,11.896-3.756,17.53c2.504-19.408-2.504-42.572-5.009-51.339c-1.878-5.634,1.878-11.269,3.756-11.895
	c4.383,0.626,22.54-14.399,33.808-28.8c0,0,15.651,5.635,20.66,11.27s13.146,15.025,13.146,15.025
	C460.159,394.559,448.264,392.681,423.222,390.803L423.222,390.803z"/>
<path fill="#CFB56A" d="M617.929,172.931c-1.879,0.626-7.514,5.635-7.514,5.635c-0.626,1.878-1.252,3.756-1.878,5.634
	c-0.626,5.009-0.626,6.261-3.13,9.391c-1.252,1.252-11.896,8.139-16.904,10.643c0.626-1.252,1.252-3.13,1.252-3.756l0.626-3.13
	c0.627-3.756,0-7.513-1.878-10.643c-0.626-1.252-0.626-3.13-1.252-4.382c0-1.252,0.626-3.13,0.626-4.383
	c0-2.504-1.252-5.008-1.252-7.513c0,1.878-1.252,3.13-1.252,5.009c0,3.756-3.131,25.042,0,34.434
	c0.626,1.878,16.277-11.269,20.66-14.399c5.009-4.383,3.756-8.765,5.635-14.399c0.626-1.252,5.634-6.261,6.887-7.513
	c1.878-1.252,6.262-2.504,7.514-3.13C624.815,170.427,619.181,172.305,617.929,172.931L617.929,172.931L617.929,172.931z
	 M587.877,196.722l-0.626,3.13l0,0c0-3.13,0-6.261,0-10.017C587.877,192.339,588.503,194.844,587.877,196.722L587.877,196.722z"/>
<path fill="#CFB56A" d="M616.676,105.942c-1.878,0.626-5.008,3.13-5.008,4.382c0,1.252,0.626,3.13,0.626,4.383
	c1.252,1.878,1.252,1.252,2.504,3.13c0.626-0.626-0.626-2.504-1.252-3.13c0-1.252,0-1.252,0-1.878c0-3.13,3.13-1.878,2.504-5.634
	L616.676,105.942L616.676,105.942z"/>
<path fill="#CFB56A" d="M617.302,186.079c-1.878,3.756-0.626,5.635-3.13,9.391c-6.887,8.765-31.304,30.051-32.556,28.799
	c-5.635-6.261-8.14-25.042-8.14-38.816c0-10.017,0.626-20.66,2.505-26.295c2.505-6.261,5.635-10.643,10.644-11.895
	c1.252,0,2.504-0.626,3.756-0.626c4.383,0,13.147,2.504,15.026,7.513c-1.252-3.131-3.757-5.635-6.888-7.513
	c0.626-3.13-0.626-14.399-2.505-21.286c0,0,0,0.626-1.878,0c-1.252,0-1.878-2.504-1.878-2.504c0.626,3.13,3.756,18.782,3.756,22.539
	c-3.13-1.252-6.887-1.878-10.643-1.252c-5.635,1.252-10.019,6.261-12.521,13.774c-2.505,6.887-3.131,19.408-3.131,30.677
	c0,11.895,1.879,33.182,9.393,40.068c3.756,3.756,33.808-28.799,36.312-35.06c1.252-2.504,1.878-6.261,4.383-10.017
	c1.878-3.756,3.757-9.391,5.636-13.147C624.188,172.305,619.181,181.696,617.302,186.079L617.302,186.079z"/>
<path fill="#CFB56A" d="M624.188,243.677c-3.131,11.896-3.131,10.017-10.018,14.399c-8.139,5.009-7.513,8.765-6.261,15.652
	c1.252,6.261-2.504,8.139-8.14,6.887c-6.887-1.252-8.139,7.513-14.398,6.887c-3.131-0.626-5.635,1.878-8.14,3.13
	c-1.253,0.626-5.009,1.878-6.261,0c3.756,0.626,4.383-2.504,6.888-4.382c2.504-1.878,6.26-1.252,9.391-2.504
	c2.504-1.252,3.13-3.756,5.635-5.009c2.504-1.252,5.636,1.252,8.766,0c4.383-1.252,3.131-7.513,2.505-10.643
	c-1.879-8.139,8.139-11.269,10.643-13.773c2.504-2.504,5.635-5.635,7.514-10.643c3.131-10.017,0-15.652,0-22.539
	c0-3.13,0-5.008,1.878-7.513c1.879-2.504,5.009-4.382,7.514-6.261c1.878-1.878,5.008-3.756,7.513-5.008
	c-2.505,3.13-8.14,6.261-10.644,9.391c-3.13,3.13-5.009,6.887-4.383,11.27C624.188,229.903,626.067,237.416,624.188,243.677
	L624.188,243.677z"/>
<path fill="#CFB56A" d="M666.762,156.027c-3.131-2.504-6.261-3.13-4.383-8.139c0.626-2.504,2.505-5.009,1.878-8.139
	c-0.626-2.504-1.878-4.382-3.756-5.634c-1.878-1.252-4.383-1.878-6.887-1.878s-5.635,0-8.14-0.626c-1.252,0-3.131-0.626-4.383-0.626
	c-0.626,0-1.878-0.626-2.504-2.504c-1.252-2.504,1.878-3.13,3.756-4.383c1.252-0.626,1.879-1.878,2.505-3.13
	c1.878-3.13,0.626-7.513-2.505-9.391c-1.252-0.626-1.252-1.878-0.626-3.13c2.505-3.13,2.505-11.27-5.635-11.27
	c-4.382,0-5.008,2.504-9.391,1.878c-2.506,0-3.758-1.252-5.01-5.008c-0.626-3.13-3.756-5.009-6.887-3.13
	c-1.878,0.626-2.504,2.504-3.13,3.756c0,0.626-1.253,1.878,0,1.878c1.252,0,0.626-1.252,1.252-1.878
	c0-0.626,0.626-0.626,1.252-0.626c1.878-0.626,3.757-0.626,4.383,1.252c1.252,8.139,3.13,10.643,5.009,13.773
	c1.253,1.878,2.505,3.756,1.253,5.635c-1.253,1.252-3.132,1.252-3.132,3.13s1.252,4.382,3.758,3.756
	c2.504-0.626,2.504-4.383-0.626-3.756c1.252,0,1.252,1.252,0.626,1.878c-1.253,1.252-3.131-0.626-1.879-1.878
	c0.625-0.626,2.505-1.878,3.131-2.504c3.13-2.504,1.252-5.635-0.626-8.765c-3.758-1.252-6.262-5.008-6.262-8.139
	c3.757,7.513,11.896,2.504,16.277,1.252c5.009-1.252,6.261,5.635,2.505,8.139c-3.757,2.504-1.879,5.008,2.504,6.261
	c0.626,0,1.252,0.626,1.878,1.252c1.253,1.252,0.626,3.13,0,4.382c-0.626,0.626-1.252,1.878-1.878,2.504
	c-1.878,1.878-5.009,3.756-3.757,6.887c0.627,1.878,3.757,3.13,5.635,3.756c1.253,0.626,1.879,0.626,3.131,0.626
	c3.131,0.626,6.888,1.252,10.018,3.13c3.757,1.878,5.635,3.756,4.383,10.017c-0.626,3.13-3.757,5.009-1.252,8.139
	c1.252,1.878,6.261,2.504,7.513,5.634c2.504,5.009-1.252,6.887-4.383,8.765c-2.504,1.252-3.756,2.504-4.382,5.008
	c-0.627,3.756,2.504,6.261,0.626,10.643c-1.253,2.504-4.383,3.757-6.887,4.383c-3.131,1.252-3.758,3.13-6.888,5.008
	c-3.131,2.504-6.261,5.635-9.392,8.765c-6.261,5.635-15.651,2.504-18.782,8.139c-3.756,7.513,2.505,19.408,1.253,26.921
	c-1.879,8.139-11.27,9.391-18.156,10.017c-8.139,0.626-13.772,3.756-11.27,12.521c1.879,6.261,2.505,6.261,2.505,10.643
	c0,6.261-8.14,3.756-11.896,5.635c-5.01,1.878-6.888,8.765-16.278,8.765c-3.756,0-6.261-0.626-10.018,0.626
	s-7.513,4.382-11.896,0.626c-1.252-1.252-1.252-3.13-3.13-3.756c-1.879-0.626-3.131,0.626-5.009,0
	c-1.252-0.626-1.878-1.878-3.131-1.878s-3.131,0.626-3.131-1.252c0,1.252,0.626,1.878,1.878,1.878c0.626,0,1.88,0,1.88,0.626
	c0.626,0.626,1.252,1.878,2.504,2.504c1.252,0,2.504,0,3.757,0.626c2.504,1.252,4.382,4.383,6.887,5.635
	c3.756,1.878,8.14,0,11.27-0.626c3.757-1.252,6.261,0,10.018,0c6.261,0.626,9.391-3.13,13.147-7.513
	c5.008-5.635,12.521-2.504,16.276-6.887c4.383-5.009,0-11.27-0.626-13.147c-2.504-7.513,0.626-12.521,15.025-13.773
	c6.887-0.626,10.018-3.757,10.644-4.383c5.636-6.887-0.626-19.408,0-26.921c0.626-6.887,7.514-5.634,12.521-8.765
	c4.382-3.13,6.887-6.887,10.643-10.643c0.626-0.626,0.626-0.626,1.252-1.252c3.757-3.13,7.514-5.008,11.896-7.513
	c3.131-1.878,5.635-3.756,6.261-7.513c0.626-3.757-1.252-6.887,2.504-9.391c2.505-1.878,6.887-3.756,7.514-7.513
	C671.771,160.41,669.892,158.532,666.762,156.027L666.762,156.027z"/>
<path fill="#CFB56A" d="M619.807,101.56c3.757,8.139,11.271,6.261,13.773,4.382c7.513-5.634,8.139-1.252,6.261,0.626h1.878
	c0.626-3.756-1.252-5.634-7.513-2.504c-4.383,1.878-10.645,0.626-15.025-6.887L619.807,101.56L619.807,101.56z"/>
<path fill="#CFB56A" d="M619.181,122.22c-1.879,8.139,3.131,13.147,12.521,15.652c3.13,1.252,11.895,1.878,14.398,4.382
	c3.757,3.756-1.878,7.513,0,12.521c1.252,3.13,4.383,3.756,5.636,6.887c1.252,5.008-1.253,6.887-3.131,10.643
	c-1.878,3.756,0,6.261,1.252,9.391c1.879,2.504,1.253,9.391-2.505,10.643c2.505-4.382,0-6.887-1.878-10.643
	c-2.505-5.009-1.252-8.139,1.878-12.521c1.879-3.13,1.879-5.635,0-8.765c-1.252-2.504-3.757-3.13-4.383-5.634
	c-0.626-3.13,1.253-3.757,2.505-6.261c1.253-5.009-12.521-7.513-16.277-8.139c7.513,3.756,3.757,15.652,1.252,20.034
	c-1.252,2.504-2.504,3.756-4.382,6.261c-1.252,1.878-2.506,3.756-3.758,5.635l-2.504,0.626c1.252-3.756,4.383-6.887,6.262-10.643
	c3.13-5.009,5.009-12.521,3.756-18.156c-1.252-4.382-5.636-5.008-8.766-8.139c-3.757-3.756-3.757-11.896-1.252-15.652
	L619.181,122.22L619.181,122.22z"/>
<path fill="#CFB56A" d="M620.433,181.696c1.252,1.878,2.504,3.756,2.504,6.261c0,3.756-3.13,6.887-3.13,10.017
	c0,3.13,1.878,6.261,0,8.765c-1.252,1.878-3.131,1.878-3.131,4.382c1.253-1.878,5.009-1.252,6.888-3.756
	c3.131-3.13,0-5.634-0.626-8.765c-1.253-4.383,1.879-6.887,2.505-10.643c0.626-3.757-3.131-5.635-4.383-8.765L620.433,181.696
	L620.433,181.696z"/>
<path fill="#CFB56A" d="M636.084,177.939c0-0.626,0-0.626,0-1.252c-0.626-1.252-1.878-2.504-2.504-3.13
	c-2.505-2.504-3.757-5.008-3.131-8.139c0.626-2.504,1.879-5.009,3.131-7.513c1.252-2.504,2.504-6.26,1.252-9.391
	c-0.626-1.878-1.878-3.756-3.13-5.009c-1.253-1.878-3.131-2.504-1.879-4.382c1.879,1.252,5.009,3.756,6.261,5.008
	c2.505,3.757,2.505,8.765,0.626,13.147c-1.252,3.757-3.756,6.887-2.504,10.644c0.626,3.13,3.13,4.382,5.009,6.887
	c1.252,1.252,1.252,3.13,0.626,5.008c-1.252,3.13-3.131,5.008-1.252,8.139c2.504,3.756,5.008,3.756,4.382,8.139
	c0,1.252-0.626,3.13-1.252,3.756s-3.757,1.252-3.757,1.252c2.505-3.756,3.131-6.26,0-10.017c-1.878-1.878-3.13-3.756-2.504-6.887
	C634.206,182.322,636.084,180.444,636.084,177.939L636.084,177.939z"/>
</svg>
