<?xml version="1.0" encoding="utf-8"?>
<!-- Generator: Adobe Illustrator 16.0.0, SVG Export Plug-In . SVG Version: 6.00 Build 0)  -->
<!DOCTYPE svg PUBLIC "-//W3C//DTD SVG 1.1//EN" "http://www.w3.org/Graphics/SVG/1.1/DTD/svg11.dtd">
<svg version="1.1" id="Layer_1" xmlns="http://www.w3.org/2000/svg" xmlns:xlink="http://www.w3.org/1999/xlink" x="0px" y="0px"
	 width="492.315px" height="433.67px" viewBox="304.081 78.591 492.315 433.67"
	 enable-background="new 304.081 78.591 492.315 433.67" xml:space="preserve">
<g>
	<path fill="#CFB56A" d="M574.729,219.886c0.625-1.252,1.252,0,2.505,1.252c1.252,1.878,1.878,3.13,1.878,5.009
		c0,4.382-1.878,9.391-6.889,11.269c-1.878,0.626-4.383,0-5.635,1.252c-1.878,1.252-1.878,3.13-3.757,3.757
		c-1.878,1.252-4.382,0-6.26,0.626c-2.505,0.626-3.759,2.504-6.89,0.626c3.131,0.626,4.385-1.878,6.89-2.504
		c3.756-0.626,5.008-0.626,6.887-3.756c0.626-1.252,1.252-1.878,2.504-2.504c1.878-1.252,3.757-1.252,5.635-1.878
		c1.878-1.252,3.132-1.878,3.757-4.382c0.627-1.878,0-4.383,0-6.887C574.729,220.512,574.729,219.886,574.729,219.886
		L574.729,219.886z"/>
	<path fill="#CFB56A" d="M621.685,134.115c-3.756,1.878-6.887,5.634-7.513,9.391c0-3.13,1.252-6.887,1.252-10.017v-0.626
		c4.383-4.382,5.635-11.269,5.635-13.147c0-6.261,1.878-17.53-10.017-23.165l-5.635,0.626c13.771,3.756,12.521,13.147,12.521,21.912
		c0,3.756-1.879,10.017-4.383,13.147c0,0-3.757,3.13-4.383,2.504c0.626,0,1.879,0.626,3.757,0.626
		c-0.626,5.635-0.626,10.643,3.13,14.399c-1.252-1.252-1.878-2.504-1.878-4.382c1.878-5.009,6.261-7.513,11.271-8.139
		C624.815,135.993,622.311,134.741,621.685,134.115L621.685,134.115z"/>
	<path fill="#CFB56A" d="M575.354,263.711c-0.625-0.626-1.253-1.878-1.879-2.504c-6.887-13.147-1.878-27.547,6.889-33.808
		l-4.383-5.634c0,0-1.252,3.756-1.252,4.382c0,1.878,0,3.13-0.628,4.382c-2.504,3.13-6.261,3.756-7.513,7.513
		c-1.252,3.13-1.252,6.261-1.252,9.391s0.626,6.887,1.252,10.017c0.626,1.252,3.757,10.017,5.009,10.017
		C572.226,266.841,573.478,266.215,575.354,263.711L575.354,263.711z"/>
	<path fill="#CFB56A" d="M591.634,281.867c1.252,1.252,1.878,1.878,3.13,3.13c5.009,5.009,10.646,10.017,15.651,14.399
		c3.131,2.505,8.766,6.261,8.14,11.27c-0.626,2.504-2.505,4.383-3.757,6.261c-1.878,1.878-3.13,4.382-4.383,6.261
		c-5.634,8.767-10.018,18.782-13.146,28.801c-3.131,8.765-5.635,17.528-7.514,26.295c0,0.626,0,1.252-0.626,1.878
		s-3.13,3.131-3.756,4.383c-1.878,1.878-3.757,4.382-5.009,6.887l0,0c-1.878,3.756,2.504,6.263,2.504,10.645
		c0,2.505,0,5.009,0.627,7.514c0.626,3.756,0.626,6.887,1.252,10.645c0,1.878,0.626,3.131,0.626,5.009c0,0.626,0,1.878,0.626,2.504
		c0,0.626,0,0.626,0,1.252c0,0,0,0.627,0,1.253c0.626,0,0.626-1.253,0.626-1.253c0-0.626,0-1.252,0.626-1.878
		c0.626-1.252,0.626-3.13,1.252-4.382c1.252-3.757,1.879-7.516,2.505-11.271c0.626-1.878,0.626-3.131,1.252-5.009
		c1.878-10.017,4.382-21.912,6.263-25.669c0.626-1.878,1.878-3.13,2.504-5.008c6.261-11.896,13.146-23.791,20.034-35.063
		c3.757-5.634,7.513-11.269,11.896-16.901c3.13-4.385,10.643-10.02,8.765-15.651c-0.626-1.253-1.252-2.505-1.252-3.131
		c-1.252-3.13-3.131-5.635-4.383-8.139c-5.008-8.765-10.643-17.53-16.903-26.295c-1.879-3.13-5.009-6.261-7.513-9.391
		c0,0,3.756-2.504,3.756-1.878c6.263,8.765,12.521,17.53,18.156,26.294c3.13,5.009,6.261,10.017,9.391,15.025
		c3.132,5.635,6.263,11.27,1.88,16.902c-1.88,3.13-4.384,6.263-6.888,8.767c-6.261,8.14-11.896,16.276-18.155,24.417
		c-8.14,11.27-16.903,22.538-22.537,35.06c-0.628,1.252-2.506,19.408-3.759,23.165c-0.626,1.878-1.252,3.756-1.878,5.634
		c-1.252,3.131-1.879,6.263-3.131,8.768c-0.626,1.252-0.626,2.504-1.252,4.382c0,0.626-0.626,1.253-0.626,1.879
		c0,0,0,1.252-0.626,1.252l0,0c0,0,0-0.626-0.626-0.626c0-0.626-0.626-1.252-0.626-1.879c-0.626-0.626-0.626-1.878-1.252-2.504
		c-0.626-3.13-2.505-16.277-3.131-18.782c-1.252-4.382-6.261-10.017-5.635-14.399c0.626-3.13,11.896-8.765,12.521-11.896
		c1.252-3.13,1.252-6.887,1.879-10.019c1.252-6.261,1.252-8.765,3.13-15.023c3.131-12.521,7.515-25.669,15.651-36.313
		c2.505-3.13,5.009-5.635,7.513-8.139c3.132-3.13-1.878-5.009-4.382-6.887c-3.131-2.504-6.261-5.009-9.392-7.513
		c-4.382-3.756-8.767-6.887-12.521-10.643L591.634,281.867L591.634,281.867z"/>
	<path fill="#CFB56A" d="M721.854,272.476c-1.878-8.139-1.253-14.399-1.253-13.773c-0.625,0.626-1.252-3.13-1.252-1.878
		c-1.253,3.13-2.505,7.513-1.253,14.399c1.253,10.017,4.385,17.53,8.768,26.295c14.397,28.799,3.756,53.842-8.768,58.851
		c6.262,20.034,18.156,38.813,20.034,60.729c1.879,20.66,5.635,33.81,10.019,50.711c-3.758-7.513-9.393-16.275-13.146-24.415
		c-9.391-22.538-15.65-44.45-20.66-53.217c-3.757-6.261-8.139-15.65-13.146-20.66c1.252,5.01,0,9.393-1.252,10.645
		c11.269,11.896,15.649,28.8,23.164,43.199c0,13.146,25.669,56.346,31.304,65.734c4.383,8.142,7.513,23.165,7.513,23.165h20.66
		c-0.626-1.252-4.383-7.513-6.261-9.392c-2.504-3.13-11.896-11.271-13.773-14.399c-3.756-5.635-6.887-11.269-9.391-16.901
		c-5.635-13.147-9.393-28.801-8.768-43.199c0.627-21.286-8.765-38.815-13.771-58.852c-0.626-3.131-1.878-8.766-1.878-8.766
		c6.887-8.765,21.912-30.677,3.13-59.476C726.864,293.136,724.359,281.867,721.854,272.476L721.854,272.476z"/>
	<path fill="#CFB56A" d="M788.219,194.217c1.252-1.252,8.767-8.765,8.141-10.643c-0.627-1.878-6.889,1.252-13.147,4.383
		c-1.878-2.504-3.756-5.009-5.009-6.261c0,0,0,0-0.626-0.626c5.635-3.13,10.644-6.26,10.018-7.513
		c-0.626-3.13-10.644-3.13-21.285-1.878c-53.843-34.434-128.345-0.626-143.996,58.85c-0.625,1.878,0.627,8.765,0.627,10.643
		c-0.627,7.513-7.515,13.773-7.515,13.773c0.626,0,3.758,0.626,3.758,0.626c0,3.13,0,1.878,0.626,5.008
		c0.626,0.626,3.756,5.008,3.756,5.008c0-1.878,0-4.382,0-6.26c3.758-63.233,67.614-111.44,123.336-83.893
		c9.392,4.382,16.276,10.643,21.912,17.53c-0.625-0.626,1.252,13.147,0.627,12.521c1.252,5.008,0.625,4.382,0,10.017
		c0,2.504-3.131,3.756-5.637,11.895c-1.878,7.513-3.13,56.346-2.504,58.851c1.252,4.382-1.252,4.382-3.757,6.887
		c-1.878,2.504-3.756,4.382-6.887,5.008c-4.383,0.625-2.504-3.756-14.399-5.635c-1.878,0-5.009-19.408-5.635-23.164
		c-1.878-22.539-21.286-46.329-22.538-49.459c0,0-1.252,8.765-0.626,8.765c1.252,2.504,15.024,25.669,16.903,30.051
		c2.505,5.009,3.757,10.644,5.009,15.652c0.626,3.13,1.878,19.408,3.757,21.286c2.504,2.504,5.634,3.754,9.392,3.754
		c2.504,0,4.383,5.637,8.766,5.011c6.261-0.626,6.261-5.011,8.14-6.261c8.14-6.261,5.008-18.782,5.008-23.165
		c0.626-13.147,3.132-38.19,3.758-41.946c1.879-10.643,3.131-5.009,5.01-8.765c1.252-2.504-1.254-18.156,0-19.408
		C775.697,201.73,785.088,197.348,788.219,194.217L788.219,194.217z"/>
	<path fill="#CFB56A" d="M520.888,164.166c0-2.504,3.758-2.504,5.011-3.756c2.504-1.252,2.504-3.756,2.504-6.26
		c0-6.887-2.504-14.4,1.879-20.661c4.382-5.634,10.017-10.643,16.275-13.147c9.393-3.756,18.782-7.513,27.549-11.895
		c1.878-0.626,3.131-1.878,5.009-2.504c2.504-0.626,4.383-1.252,6.887-1.878c4.383-1.252,8.765-2.504,13.147-4.383
		c1.878-0.626,3.756-1.878,5.009-3.13c1.252-0.626,2.504-1.878,4.382-1.252c0.626-1.252,1.252-3.756-0.626-4.382
		c-3.13-1.878-5.009,1.878-6.261,3.756c-2.504,2.504-5.637,3.756-8.767,5.008c-3.131,1.252-6.261,2.504-9.391,3.756
		c-3.757,1.878-7.514,2.504-11.271,3.757c-11.27,4.382-23.164,7.513-33.182,13.773c-4.383,2.504-10.018,6.261-12.521,10.643
		c-3.132,5.008-1.88,9.391-1.253,15.025c0,3.756,0.625,6.261-1.879,9.391C520.888,159.158,520.262,160.41,520.888,164.166
		L520.888,164.166z"/>
	<path fill="#CFB56A" d="M554.069,237.416c0,0.626-0.626,0.626-0.626,1.252c-2.505,3.13-6.263,1.252-9.393,0.626
		c-1.879-0.626-3.757-0.626-5.009,0.626c1.878-1.252,1.878-2.504,4.383-2.504c1.878-0.626,5.008,0.626,6.261-0.626
		c1.88-1.252,1.88-4.382,3.758-5.635c1.878-1.252,3.757-1.878,6.261-2.504c6.887-1.252,4.383-6.261,6.887-10.644
		c0.626-1.878,2.504-3.13,4.383-4.382c-1.879,1.252-1.879,6.261-2.505,8.765s-1.878,6.261-4.382,7.513
		C559.078,231.781,555.947,230.529,554.069,237.416L554.069,237.416z"/>
	<path fill="#CFB56A" d="M582.242,94.673c-5.009,3.756-10.019,6.261-15.651,8.765c-11.27,4.383-23.164,7.513-33.182,13.773
		c-10.019,5.635-18.782,15.026-20.034,26.921c-0.626,4.383,3.757,11.896,1.878,15.026c-1.878,4.382-10.643,4.382-13.773,5.008
		c-8.139,3.13-14.397,8.139-13.146,14.4c1.253,6.26,1.879,8.139,0.626,11.895c-1.252,5.635-7.513,5.009-11.269,8.139
		c-5.637,3.756-5.637,6.887-6.263,13.773c-0.626,6.26-5.009,6.26-8.139,10.017c-3.757,3.756-2.505,6.887-3.757,11.269
		c-0.626,3.13-1.878,5.008-4.383,5.635v0.626c5.635,0.626,5.635-6.261,6.261-9.391c1.252-5.008,2.505-6.887,7.513-9.391
		c2.505-1.252,6.261-1.252,6.887-3.756c2.507-5.635-1.878-10.017,3.133-15.025c3.757-3.756,10.017-3.13,13.771-6.887
		c4.383-5.009,0.626-11.27,0.626-13.147c-0.626-4.383,0.626-10.643,5.635-13.773c1.879-1.252,6.889-1.878,11.271-1.878
		c1.878,0,4.382,0,6.26-1.252c1.253-0.626,1.879-1.252,2.505-1.878c3.13-3.756,1.252-7.513,0.626-12.521
		c-1.252-15.025,8.141-28.799,21.912-34.434c9.394-3.756,18.782-7.513,27.547-11.895c5.637-2.504,11.271-6.887,16.904-10.017
		c4.382-2.504,12.521-6.261,16.903-2.504C602.902,82.151,585.373,92.794,582.242,94.673L582.242,94.673z"/>
	<path fill="#CFB56A" d="M520.262,202.356c1.878,0,2.504-0.626,4.384-1.252c4.383-2.504,6.262-7.513,7.514-11.895
		c2.504-12.521,18.156-25.043,32.556-31.304c7.513-3.13,21.912-16.903,25.668-25.668c-16.276,6.887-36.938,16.278-49.459,33.182
		l-1.878,1.252c2.504-1.252,5.009-8.765,6.887-11.269c4.384-4.383,9.393-8.139,14.399-11.896
		c6.261-3.756,12.521-7.513,18.782-10.643c5.008-2.504,12.521-2.504,13.771-8.765c6.262,10.644-16.902,33.182-25.669,36.938
		c-16.903,7.513-28.799,13.147-33.808,28.799c-1.252,5.009-4.383,10.643-9.393,13.147c-0.627,0-4.383,1.252-6.261,0.626
		c-2.505-1.252-8.14-3.13-9.392-2.504c1.252-1.252,2.505-1.878,5.009-1.252C514.001,200.478,517.758,202.356,520.262,202.356
		L520.262,202.356z"/>
	<path fill="#CFB56A" d="M505.862,182.322c0-0.626,0-1.878,0.626-2.504c1.252-3.756,4.383-6.261,8.139-6.887
		c3.757-0.626,7.513,2.504,11.271,2.504c1.878,0,3.757-1.252,5.009-2.504c2.504-2.504,4.382-6.261,5.008-10.017
		c2.505-12.521,17.53-26.921,31.93-31.303c16.904-5.635,26.295-19.408,25.669-25.669c-16.275,6.887-36.938,16.278-49.459,33.182
		l-1.879,1.252c2.505-1.878,5.009-9.391,6.888-11.895c4.384-4.383,9.393-8.139,14.398-11.896
		c6.261-3.756,12.521-7.513,18.782-10.643c5.009-2.504,12.521-2.504,13.771-8.765c6.263,10.644-6.261,28.799-25.669,36.938
		c-16.901,7.513-28.799,13.147-33.807,28.799c-1.879,5.635-4.383,12.521-10.646,14.399c-4.383,1.252-8.139-3.13-12.521-1.252
		c-3.757,1.252-4.383,5.008-5.009,8.765c-1.252,6.887-7.515,5.009-10.019,10.018c0-3.757,3.131-3.757,5.01-5.635
		C506.488,186.705,505.862,184.826,505.862,182.322L505.862,182.322z"/>
	<path fill="#CFB56A" d="M514.001,206.113c-0.626,0-1.252,0-1.878,0c0,1.252,2.504,1.252,3.13,1.878
		c1.879,1.252,2.505,2.504,4.383,3.756c1.252,1.252,3.13,1.878,5.009,2.504c3.758,1.252,8.141,0.626,11.896-1.252
		c0.626-0.626,1.252-0.626,1.878-1.252c28.173-21.912,27.547-45.077,44.45-63.232c-2.504,1.252-5.635,2.504-5.635,2.504
		c-5.636,5.009-15.025,40.694-39.441,57.599c-3.131,2.504-7.513,3.756-11.271,3.13c-1.879,0-3.132-0.626-5.01-1.252
		s-2.504-1.878-4.382-2.504c-0.627-0.626-1.253-0.626-1.879-1.252S514.001,206.113,514.001,206.113L514.001,206.113z"/>
	<path fill="#CFB56A" d="M484.576,238.042c2.504-6.887,9.391-3.13,14.397-3.13c8.141,0,8.767-6.26,10.645-11.895
		c2.505-6.261,16.277-3.13,22.539-3.13c8.765,0.626,11.27,1.252,18.156-4.382c8.139-6.261,3.756-20.66,8.765-28.799
		c-2.505,3.756-6.261,4.382-7.513,10.017c-0.626,3.756-1.881,12.521-4.385,16.278c-5.635,6.887-8.139,5.634-16.901,5.008
		c-5.636,0-18.156-4.382-21.286,0.626c-3.757,5.009-2.505,11.896-10.02,13.147c-5.009,0.626-12.521-5.008-15.649,6.261
		C483.324,238.668,484.576,238.668,484.576,238.042L484.576,238.042z"/>
	<path fill="#CFB56A" d="M508.366,237.416c-3.13,0.626-5.635,0.626-8.141-0.626c-1.252-0.626-2.504-1.252-3.756-1.878
		c-1.253-0.626-2.505-0.626-3.757-1.252c0-0.626,1.878,0,2.504,0s1.879,0.626,2.505,0.626c2.504,0.626,5.637,1.878,8.141,1.252
		c8.139-1.878,5.009-11.896,11.896-14.4c5.009-1.878,11.271,0,15.651,1.878c31.93,10.643,45.077-18.782,32.556-35.686
		c-1.252-1.252-2.505-7.513-1.252-11.269l5.009-8.139c-4.383,10.643-2.505,17.53-1.253,19.408
		c14.399,25.043-11.269,50.085-35.06,37.564c-5.009-2.504-11.896-4.382-16.903-0.626
		C512.749,229.277,515.879,235.538,508.366,237.416L508.366,237.416z"/>
	<path fill="#CFB56A" d="M521.514,271.224c1.252,3.756,6.263,0.626,8.768,1.252c1.878,0,2.504,1.878,4.382,1.878
		c1.879,0,3.757-2.504,6.261-2.504c3.757-0.626,5.635,3.13,9.394,3.756c4.382,0.626,5.634-3.756,8.139-6.26
		c5.635-6.261,10.017-1.878,16.277-5.635c4.383-2.504,3.757-10.017,5.009-14.399c1.252-5.009,4.383-8.765,9.391-10.017
		c5.009-1.252,10.02,0,14.399-0.626c2.505,0,5.635-0.626,7.514-1.878c3.756-2.504,4.382-6.887,4.382-11.896
		c0.626,1.878,1.252,6.261-1.252,10.644c-2.504,4.382-8.139,6.887-13.771,7.513c-7.515,0.626-13.773-1.252-18.156,6.261
		c-2.504,4.382-0.626,10.643-3.756,15.025c-3.758,4.382-9.394,1.878-14.399,4.382c-3.131,1.878-3.757,3.757-5.635,6.887
		c-2.505,3.756-5.635,5.634-9.393,3.13c-3.131-1.878-5.009-3.13-8.14-3.756c-2.504,0-5.009,1.878-7.513,1.252
		c-1.252,0-1.878-1.252-3.13-1.252c-1.88-0.626-5.636,0-7.515-1.252C520.888,273.728,522.14,272.476,521.514,271.224
		L521.514,271.224z"/>
	<path fill="#CFB56A" d="M608.537,95.925c-0.626,0.626-1.252,0.626-1.252,1.252c-1.252-1.252-0.626-2.504,0.626-3.756
		c3.757-5.635,10.644-2.504,16.275-1.878c4.385,0.626,3.133-3.13,5.011-5.635c1.252-1.878,4.383-0.626,5.009,0.626
		c1.252,1.878-1.252,6.887,0.626,6.887c0.626,1.878-1.878,1.878-3.13,1.252c-1.253-1.878,0.626-2.504,1.252-3.756
		s0-3.756-1.252-3.756c-1.879,0-1.879,2.504-2.505,3.756c-1.253,1.252-3.132,1.878-5.011,1.878c-2.504,0-5.008-1.252-7.513-1.878
		C612.92,91.542,610.415,93.421,608.537,95.925L608.537,95.925z"/>
	<path fill="#CFB56A" d="M606.659,89.664c0.626-2.504,2.504-4.382,4.383-5.634c3.13-1.878,7.513-1.252,10.017,0.626
		c1.253,0.626,5.637,4.382,5.011,6.261c-2.505,0.626-3.133-3.13-4.385-4.383c-2.504-1.252-6.261-0.626-8.765,0.626
		c-1.252,0.626-2.505,1.878-3.757,3.13l-2.504,4.383h-0.626C605.407,93.421,606.033,91.542,606.659,89.664L606.659,89.664z"/>
	<path fill="#CFB56A" d="M573.478,93.421c3.758-1.252,5.637-3.131,8.141-6.261c1.252-1.878,3.131-3.13,4.383-3.757
		c1.252-0.626,2.504-1.252,3.756-0.626c1.253,0.626,1.879,1.878,2.505,1.878c3.13,0.626,5.009-3.756,8.767-2.504
		c3.131,1.252,3.131,5.635,3.757,8.139c1.252,0.626,1.878,1.252,2.504,2.504c1.252-3.756,0.626-8.139-1.878-11.269
		c-2.505-3.13-5.635-3.756-9.393-1.878c-3.757,1.878-7.514-0.626-10.644,1.252c-2.505,1.252-4.383,4.382-5.635,6.261
		c-2.505,2.504-4.383,3.756-8.141,2.504c-3.757-1.252-6.887,1.878-7.513,5.635c-0.627,2.504-0.627,7.513-3.757,8.765
		c3.13,1.252,4.383-1.878,5.009-4.383C567.217,95.925,569.721,94.047,573.478,93.421L573.478,93.421z"/>
	<path fill="#CFB56A" d="M481.445,224.269c5.635,0,6.261-6.261,12.521-7.513c6.887-1.252,2.505-11.269,17.53-11.269
		c1.252,0,2.504,0.626,3.756,0.626c1.253,0,1.879,0.626,2.505,1.252c0,0.626,0.626,0.626,0.626,1.252c0.626,0.626,0,0.626,0,1.252
		c-3.757-1.878-8.139-3.13-12.521-1.252c-3.131,1.252-5.011,4.382-6.263,7.513c-1.878,6.261-4.383,3.756-7.513,5.008
		C488.332,223.643,486.454,227.399,481.445,224.269L481.445,224.269z"/>
	<path fill="#CFB56A" d="M436.369,250.563c-1.253,0-3.131,0-4.383,0c-25.042-1.252-33.184-10.017-51.963-0.626
		c-0.626,0-1.252,0.626-1.252,0.626c-18.782,10.017-11.895,26.921-24.417,36.938c-11.269,9.391-31.303,14.4-40.694,21.913
		c-5.635,4.382-8.139,11.896-8.765,15.025c-1.878,7.513-0.626,17.528,5.009,26.921c4.382,7.513-3.13,11.896-1.252,19.406
		c1.878-5.635,5.635-8.765,6.261-13.771c0.626-4.383-0.626-8.14-3.13-11.896c-3.13-4.383-4.382-13.771-3.756-19.406
		c1.252-6.889,8.765-11.271,16.278-14.399c18.782-7.513,36.938-18.782,41.32-36.938c6.887-28.173,34.434-27.547,53.216-23.791
		c-12.521,0.626-23.791,2.504-34.434,9.391c-10.643,6.887-15.026,23.165-18.782,28.173c-21.912,23.791-49.459,25.668-48.207,70.746
		c0,2.504-3.13,9.391-4.382,12.521c-1.252,3.132-2.504,6.263-1.878,9.393c0,1.252,0.626,6.261,4.382,7.513
		c-1.252-1.878-2.504-4.382-2.504-6.887c0-3.13,1.252-4.382,1.878-7.513c1.252-3.758,2.504-6.889,3.756-10.645
		c1.878-5.635,2.504-11.896,3.13-18.156c2.504-26.921,20.034-33.808,43.825-48.207c5.635-3.756,8.139-8.765,10.017-13.773
		c0.626-2.504,1.878-5.635,1.878-8.139c0.626-3.13,1.252-6.887,3.756-9.391c0.626-0.626,5.008-3.756,5.634-4.382
		c6.887-5.008,15.652-6.261,23.791-7.513c6.887-1.252,12.521-0.626,18.782-0.626c0.626,0,1.252,0,1.878,0.626
		c-9.393,0.626-20.034,2.504-30.051,6.261c-1.878,0.626-3.756,1.252-5.009,2.504c-1.252,0.626-2.504,1.878-3.756,2.504
		c-6.887,3.756-9.391,10.017-10.643,16.904c-1.252,8.139-3.13,15.652-11.269,19.409c-53.216,25.042-39.442,45.074-46.329,61.354
		c-4.382,9.391-7.513,17.529-5.009,27.547c1.878,6.262,13.774,21.912,40.695,25.042c-13.147-6.261-43.199-12.521-38.19-38.188
		c1.878-8.768,8.765-23.165,10.017-33.81c0.626-3.757,2.504-6.887,5.009-10.644c9.391-12.521,28.173-15.651,38.816-26.921
		c6.887-6.261,10.017-13.773,11.896-21.912c0.626-3.756,1.878-13.773,10.643-18.782c4.382-2.504,10.017-4.382,15.651-5.634
		c4.383-1.252,10.018-1.252,15.026-1.878c-1.255,0-2.507,0.626-3.133,0.626c-1.878,0.626-3.756,1.252-5.635,1.878
		c-3.756,1.252-7.513,3.13-11.269,4.382c-7.513,3.13-14.399,8.765-15.026,14.399c-5.634,32.556-31.929,39.442-50.711,60.729
		c-2.504,2.505-3.757,5.635-4.383,8.14c-1.252,3.132-1.252,5.636-3.756,9.393c-11.895,19.408-10.017,53.842,25.043,49.459
		c-15.652-2.504-31.304-13.773-30.051-28.173c1.878-10.02,8.765-18.782,11.895-26.295c3.756-7.515,5.009-11.896,10.643-15.651
		c22.539-15.652,41.947-27.547,42.573-49.459c0-8.765,6.887-15.652,12.521-18.782c6.26-3.13,12.521-5.634,19.408-7.513
		c-2.504-0.626-14.397,5.635-23.164,11.895c-4.383,3.13-8.765,14.4-9.391,21.913c-1.252,24.417-16.278,32.555-39.442,46.955
		c-11.269,6.888-18.156,22.539-19.408,33.81c-0.626,6.261,0.626,13.146,6.26,18.154c3.13,2.506,6.887,3.758,10.643,5.011
		c6.887,1.878,8.765,2.504,12.521,7.513s6.261,5.635,12.521,8.139c-5.635-5.635-5.009-11.896-10.017-16.902
		c-4.382-3.758-11.269-3.132-16.278-6.262c-5.008-3.131-6.887-8.139-7.513-12.521c-1.878-12.521,5.635-25.043,16.278-33.81
		c1.252-1.252,3.13-1.252,5.008-1.878c9.391-3.757,18.156-8.766,24.417-15.65c4.382-5.009,7.513-10.645,8.765-16.277
		c1.252-3.757,1.252-7.513,1.252-10.644c0-4.382,0.626-8.14,1.252-13.147c2.504-9.391,10.017-14.399,15.025-18.156
		c3.13-2.504,6.887-3.756,10.643-5.008c1.88-0.626,8.141-2.504,8.141-2.504s6.261-6.887,6.887-8.139
		C442.003,251.189,436.995,250.563,436.369,250.563L436.369,250.563z"/>
	<path fill="#CFB56A" d="M589.129,375.777c0,0,0.626-6.263,0.626-6.889c-18.155-1.253-44.45-6.261-55.72-10.018
		c-0.626,0-0.626-15.025-12.521-23.164c-1.252-1.253,1.252,4.382,1.88,10.017c1.253,7.515,0.625,16.904,0.625,18.156
		c0,20.034-9.392,57.598-9.392,58.853c1.252,6.26,1.879,11.895,12.521,18.779c16.276,10.646,45.701,40.694,46.327,43.199
		c-32.556-25.043-55.72-38.814-71.996-43.199c-5.01-1.252-10.019-58.85-36.313-78.884c-13.146-10.018-27.547-18.782-33.182-30.052
		c-16.278-32.557-6.263-71.998,36.312-88.901c33.809-13.147,82.018,1.878,99.545,7.513c0.626,0,0.626-3.756,0-3.756
		c-13.771-5.634-65.736-22.539-106.432-7.513c-45.703,16.278-58.224,60.104-33.81,100.17c15.652,25.669,52.592,28.8,56.975,75.128
		c0.626,10.02,1.878,16.278,1.878,20.66c0,8.14,6.261,10.645,10.644,11.896c13.147,1.879,82.017,38.188,87.022,57.599
		c0.627,1.878,0,4.382-1.252,5.635h23.791c0-1.879-5.009-10.018-7.514-13.146c-5.636-8.768-45.702-38.816-49.461-41.946
		c-23.789-22.539-25.668-39.442-25.668-42.573c0-1.252,6.889-43.824,7.515-47.581c0,0,0-0.626,0,0c0.626,0-0.626-11.27,0-10.643
		c0.626,0,3.13,11.895,3.756,11.895C546.557,370.769,578.486,375.777,589.129,375.777L589.129,375.777z"/>
	<path fill="#CFB56A" d="M599.146,376.403l4.384-6.889c0,0,23.165,0.626,34.434-3.131c0,0,23.165,26.295,31.93,34.436
		c6.263,5.635,22.539,21.286,25.671,23.165c3.13,1.878,5.635,5.008,6.261,8.765c0.626,3.13-1.878,5.635-3.757,8.139
		c-1.88,3.132-8.141,16.904-10.019,21.286c1.878,0,24.417-27.547,20.66-34.434c-5.009-9.393-10.646-18.781-16.277-27.547
		c-3.757-6.263-7.514-11.896-11.896-17.529c-1.252-1.253,4.382-5.009,8.139-10.018c3.757-5.637,6.261-13.147,6.887-12.521
		c0,0,3.132,10.018,0.626,15.025c-0.626,2.505-5.635,7.514-5.009,8.14c7.515,11.896,15.652,30.677,18.156,35.688
		c1.878,3.757,6.261,7.513,6.261,12.521c0.626,6.887-16.275,26.295-20.66,30.677c-6.261,6.263-10.018,13.773-15.023,19.408
		c-3.131,2.505-21.913,13.773-21.913,13.773c0.626-1.878-0.626-20.66-0.626-23.164c0,0,18.156-2.504,19.408-3.759
		c5.635-5.008,9.392-15.023,13.146-21.284c1.878-3.757,5.009-7.515,5.635-11.896c0.627-5.008-5.009-8.139-8.139-10.643
		c-8.765-5.637-26.295-21.912-31.304-25.669c-5.009-4.385-20.034-18.782-21.286-21.912
		C623.563,377.655,599.146,376.403,599.146,376.403L599.146,376.403z"/>
	<path fill="#CFB56A" d="M405.691,381.411C406.317,381.411,405.691,381.411,405.691,381.411L405.691,381.411z"/>
	<path fill="#CFB56A" d="M475.812,383.916c-7.514-8.766-41.319-35.06-41.319-35.06c-1.252,2.504-2.504,5.634-4.382,8.139
		c-10.019,13.771-24.417,21.912-25.669,21.912c-3.13,0.626-6.261,2.504-8.139,5.009c-2.504,3.13-2.504,8.139-1.252,11.269
		c4.382,10.02,6.887,31.932,6.261,41.321s0.626,17.529-3.13,26.294c-3.13,10.02-22.539,10.02-23.791,10.02l10.017,21.284
		c1.878-1.252,11.269-8.139,13.146-11.896c3.756-8.765,3.756-8.765,6.261-15.025c1.878-4.383,9.391-23.164,10.643-29.425
		c1.878-10.018,2.504-20.034,2.504-21.286c0,0,0.626-8.766,1.252-10.018s2.504-3.13,3.757-3.756
		c1.878-0.627,11.271-1.879,13.773-1.253c1.878,0,23.79,1.879,35.686-8.767C472.055,392.681,478.315,386.42,475.812,383.916
		L475.812,383.916L475.812,383.916z M423.222,390.803c-6.887-0.626-8.765,7.515-9.391,8.767c-0.626,0.626-1.252,16.902-2.504,29.425
		c-0.626,5.635-1.878,11.896-3.756,17.53c2.504-19.408-2.504-42.572-5.009-51.34c-1.878-5.634,1.878-11.269,3.756-11.895
		c4.383,0.626,22.541-14.399,33.808-28.8c0,0,15.651,5.635,20.66,11.27s13.146,15.025,13.146,15.025
		C460.159,394.559,448.264,392.681,423.222,390.803L423.222,390.803z"/>
	<path fill="#CFB56A" d="M617.929,172.931c-1.879,0.626-7.514,5.635-7.514,5.635c-0.626,1.878-1.252,3.756-1.878,5.634
		c-0.626,5.009-0.626,6.261-3.13,9.391c-1.252,1.252-11.896,8.139-16.904,10.643c0.626-1.252,1.252-3.13,1.252-3.756l0.626-3.13
		c0.627-3.756,0-7.513-1.878-10.643c-0.626-1.252-0.626-3.13-1.252-4.382c0-1.252,0.626-3.13,0.626-4.383
		c0-2.504-1.252-5.008-1.252-7.513c0,1.878-1.252,3.13-1.252,5.009c0,3.756-3.131,25.042,0,34.434
		c0.626,1.878,16.277-11.269,20.66-14.399c5.009-4.383,3.756-8.765,5.635-14.399c0.626-1.252,5.634-6.261,6.887-7.513
		c1.878-1.252,6.263-2.504,7.515-3.13C624.815,170.427,619.181,172.305,617.929,172.931L617.929,172.931L617.929,172.931z
		 M587.877,196.722l-0.626,3.13l0,0c0-3.13,0-6.261,0-10.017C587.877,192.339,588.503,194.844,587.877,196.722L587.877,196.722z"/>
	<path fill="#CFB56A" d="M616.676,105.942c-1.878,0.626-5.008,3.13-5.008,4.382c0,1.252,0.626,3.13,0.626,4.383
		c1.252,1.878,1.252,1.252,2.504,3.13c0.626-0.626-0.626-2.504-1.252-3.13c0-1.252,0-1.252,0-1.878c0-3.13,3.13-1.878,2.504-5.634
		L616.676,105.942L616.676,105.942z"/>
	<path fill="#CFB56A" d="M617.302,186.079c-1.878,3.756-0.626,5.635-3.13,9.391c-6.887,8.765-31.304,30.051-32.556,28.799
		c-5.635-6.261-8.141-25.042-8.141-38.816c0-10.017,0.626-20.66,2.506-26.295c2.505-6.261,5.635-10.643,10.644-11.895
		c1.252,0,2.504-0.626,3.756-0.626c4.383,0,13.147,2.504,15.026,7.513c-1.252-3.131-3.758-5.635-6.889-7.513
		c0.626-3.13-0.626-14.399-2.505-21.286c0,0,0,0.626-1.878,0c-1.252,0-1.878-2.504-1.878-2.504
		c0.626,3.13,3.756,18.782,3.756,22.539c-3.13-1.252-6.887-1.878-10.643-1.252c-5.635,1.252-10.02,6.261-12.521,13.774
		c-2.505,6.887-3.131,19.408-3.131,30.677c0,11.895,1.879,33.182,9.394,40.068c3.756,3.756,33.808-28.799,36.312-35.06
		c1.252-2.504,1.878-6.261,4.383-10.017c1.878-3.756,3.757-9.391,5.637-13.147C624.188,172.305,619.181,181.696,617.302,186.079
		L617.302,186.079z"/>
	<path fill="#CFB56A" d="M624.188,243.677c-3.132,11.896-3.132,10.017-10.019,14.399c-8.139,5.009-7.513,8.765-6.261,15.652
		c1.252,6.261-2.504,8.139-8.141,6.887c-6.887-1.252-8.139,7.513-14.397,6.887c-3.131-0.626-5.635,1.878-8.14,3.13
		c-1.254,0.626-5.01,1.878-6.262,0c3.756,0.626,4.383-2.504,6.889-4.382c2.504-1.878,6.26-1.252,9.391-2.504
		c2.504-1.252,3.13-3.756,5.635-5.009c2.504-1.252,5.636,1.252,8.767,0c4.383-1.252,3.131-7.513,2.505-10.643
		c-1.879-8.139,8.139-11.269,10.643-13.773c2.504-2.504,5.635-5.635,7.514-10.643c3.132-10.017,0-15.652,0-22.539
		c0-3.13,0-5.008,1.879-7.513c1.879-2.504,5.009-4.382,7.514-6.261c1.878-1.878,5.008-3.756,7.513-5.008
		c-2.505,3.13-8.14,6.261-10.644,9.391c-3.13,3.13-5.01,6.887-4.383,11.27C624.188,229.903,626.067,237.416,624.188,243.677
		L624.188,243.677z"/>
	<path fill="#CFB56A" d="M666.762,156.027c-3.131-2.504-6.261-3.13-4.383-8.139c0.626-2.504,2.505-5.009,1.878-8.139
		c-0.626-2.504-1.878-4.382-3.756-5.634c-1.878-1.252-4.383-1.878-6.887-1.878s-5.635,0-8.141-0.626
		c-1.252,0-3.131-0.626-4.383-0.626c-0.626,0-1.878-0.626-2.504-2.504c-1.252-2.504,1.878-3.13,3.756-4.383
		c1.252-0.626,1.879-1.878,2.505-3.13c1.878-3.13,0.626-7.513-2.505-9.391c-1.252-0.626-1.252-1.878-0.626-3.13
		c2.505-3.13,2.505-11.27-5.635-11.27c-4.382,0-5.008,2.504-9.391,1.878c-2.507,0-3.759-1.252-5.011-5.008
		c-0.626-3.13-3.756-5.009-6.887-3.13c-1.878,0.626-2.504,2.504-3.13,3.756c0,0.626-1.253,1.878,0,1.878
		c1.252,0,0.626-1.252,1.252-1.878c0-0.626,0.626-0.626,1.252-0.626c1.878-0.626,3.757-0.626,4.383,1.252
		c1.252,8.139,3.13,10.643,5.009,13.773c1.253,1.878,2.506,3.756,1.253,5.635c-1.253,1.252-3.132,1.252-3.132,3.13
		s1.252,4.382,3.758,3.756c2.505-0.626,2.505-4.383-0.626-3.756c1.253,0,1.253,1.252,0.626,1.878
		c-1.253,1.252-3.131-0.626-1.879-1.878c0.625-0.626,2.505-1.878,3.131-2.504c3.131-2.504,1.252-5.635-0.626-8.765
		c-3.758-1.252-6.262-5.008-6.262-8.139c3.757,7.513,11.896,2.504,16.277,1.252c5.009-1.252,6.261,5.635,2.505,8.139
		c-3.757,2.504-1.879,5.008,2.504,6.261c0.626,0,1.252,0.626,1.878,1.252c1.253,1.252,0.626,3.13,0,4.382
		c-0.626,0.626-1.252,1.878-1.878,2.504c-1.878,1.878-5.009,3.756-3.757,6.887c0.627,1.878,3.757,3.13,5.635,3.756
		c1.253,0.626,1.879,0.626,3.131,0.626c3.131,0.626,6.888,1.252,10.019,3.13c3.757,1.878,5.635,3.756,4.383,10.017
		c-0.626,3.13-3.757,5.009-1.252,8.139c1.252,1.878,6.261,2.504,7.513,5.634c2.504,5.009-1.252,6.887-4.383,8.765
		c-2.504,1.252-3.756,2.504-4.382,5.008c-0.627,3.756,2.504,6.261,0.626,10.643c-1.253,2.504-4.384,3.757-6.888,4.383
		c-3.131,1.252-3.758,3.13-6.888,5.008c-3.131,2.504-6.261,5.635-9.392,8.765c-6.262,5.635-15.651,2.504-18.782,8.139
		c-3.756,7.513,2.505,19.408,1.253,26.921c-1.879,8.139-11.271,9.391-18.156,10.017c-8.139,0.626-13.771,3.756-11.27,12.521
		c1.879,6.261,2.505,6.261,2.505,10.643c0,6.261-8.141,3.756-11.896,5.635c-5.01,1.878-6.888,8.765-16.277,8.765
		c-3.757,0-6.262-0.626-10.019,0.626s-7.513,4.382-11.896,0.626c-1.252-1.252-1.252-3.13-3.13-3.756c-1.88-0.626-3.132,0.626-5.01,0
		c-1.252-0.626-1.878-1.878-3.131-1.878s-3.131,0.626-3.131-1.252c0,1.252,0.626,1.878,1.878,1.878c0.626,0,1.88,0,1.88,0.626
		c0.626,0.626,1.252,1.878,2.504,2.504c1.252,0,2.505,0,3.758,0.626c2.504,1.252,4.382,4.383,6.887,5.635
		c3.756,1.878,8.14,0,11.27-0.626c3.758-1.252,6.262,0,10.019,0c6.261,0.626,9.391-3.13,13.146-7.513
		c5.009-5.635,12.521-2.504,16.276-6.887c4.383-5.009,0-11.27-0.626-13.147c-2.504-7.513,0.626-12.521,15.025-13.773
		c6.887-0.626,10.018-3.757,10.644-4.383c5.636-6.887-0.626-19.408,0-26.921c0.626-6.887,7.514-5.634,12.521-8.765
		c4.382-3.13,6.887-6.887,10.643-10.643c0.626-0.626,0.626-0.626,1.252-1.252c3.757-3.13,7.514-5.008,11.896-7.513
		c3.131-1.878,5.635-3.756,6.261-7.513c0.626-3.757-1.252-6.887,2.504-9.391c2.505-1.878,6.887-3.756,7.514-7.513
		C671.771,160.41,669.892,158.532,666.762,156.027L666.762,156.027z"/>
	<path fill="#CFB56A" d="M619.807,101.56c3.758,8.139,11.271,6.261,13.773,4.382c7.513-5.634,8.139-1.252,6.261,0.626h1.878
		c0.626-3.756-1.252-5.634-7.513-2.504c-4.383,1.878-10.646,0.626-15.025-6.887L619.807,101.56L619.807,101.56z"/>
	<path fill="#CFB56A" d="M619.181,122.22c-1.879,8.139,3.131,13.147,12.521,15.652c3.13,1.252,11.895,1.878,14.397,4.382
		c3.758,3.756-1.878,7.513,0,12.521c1.253,3.13,4.384,3.756,5.637,6.887c1.252,5.008-1.253,6.887-3.131,10.643
		c-1.878,3.756,0,6.261,1.252,9.391c1.879,2.504,1.253,9.391-2.505,10.643c2.505-4.382,0-6.887-1.879-10.643
		c-2.505-5.009-1.252-8.139,1.879-12.521c1.879-3.13,1.879-5.635,0-8.765c-1.253-2.504-3.758-3.13-4.384-5.634
		c-0.626-3.13,1.253-3.757,2.505-6.261c1.254-5.009-12.521-7.513-16.276-8.139c7.513,3.756,3.757,15.652,1.252,20.034
		c-1.252,2.504-2.504,3.756-4.382,6.261c-1.252,1.878-2.506,3.756-3.758,5.635l-2.505,0.626c1.252-3.756,4.384-6.887,6.263-10.643
		c3.13-5.009,5.009-12.521,3.756-18.156c-1.252-4.382-5.636-5.008-8.767-8.139c-3.757-3.756-3.757-11.896-1.252-15.652
		L619.181,122.22L619.181,122.22z"/>
	<path fill="#CFB56A" d="M620.433,181.696c1.252,1.878,2.504,3.756,2.504,6.261c0,3.756-3.13,6.887-3.13,10.017
		c0,3.13,1.878,6.261,0,8.765c-1.252,1.878-3.131,1.878-3.131,4.382c1.253-1.878,5.009-1.252,6.889-3.756
		c3.131-3.13,0-5.634-0.626-8.765c-1.254-4.383,1.879-6.887,2.505-10.643c0.626-3.757-3.131-5.635-4.384-8.765L620.433,181.696
		L620.433,181.696z"/>
	<path fill="#CFB56A" d="M636.084,177.939c0-0.626,0-0.626,0-1.252c-0.626-1.252-1.878-2.504-2.504-3.13
		c-2.505-2.504-3.757-5.008-3.131-8.139c0.626-2.504,1.879-5.009,3.131-7.513c1.252-2.504,2.504-6.26,1.252-9.391
		c-0.626-1.878-1.878-3.756-3.13-5.009c-1.253-1.878-3.131-2.504-1.879-4.382c1.879,1.252,5.009,3.756,6.261,5.008
		c2.505,3.757,2.505,8.765,0.626,13.147c-1.252,3.757-3.756,6.887-2.504,10.644c0.626,3.13,3.13,4.382,5.009,6.887
		c1.252,1.252,1.252,3.13,0.626,5.008c-1.252,3.13-3.131,5.008-1.252,8.139c2.504,3.756,5.008,3.756,4.382,8.139
		c0,1.252-0.626,3.13-1.252,3.756s-3.757,1.252-3.757,1.252c2.505-3.756,3.131-6.26,0-10.017c-1.878-1.878-3.13-3.756-2.504-6.887
		C634.206,182.322,636.084,180.444,636.084,177.939L636.084,177.939z"/>
</g>
</svg>
