<?xml version="1.0" encoding="utf-8"?>
<!-- Generator: Adobe Illustrator 16.0.0, SVG Export Plug-In . SVG Version: 6.00 Build 0)  -->
<!DOCTYPE svg PUBLIC "-//W3C//DTD SVG 1.1//EN" "http://www.w3.org/Graphics/SVG/1.1/DTD/svg11.dtd">
<svg version="1.1" id="Layer_1" xmlns="http://www.w3.org/2000/svg" xmlns:xlink="http://www.w3.org/1999/xlink" x="0px" y="0px"
	 width="32px" height="32px" viewBox="0 0 32 32" enable-background="new 0 0 32 32" xml:space="preserve">
<title>google-plus</title>
<path fill="#CDC6C1" d="M10.181,14.294v3.494h5.775c-0.231,1.5-1.744,4.394-5.775,4.394c-3.475,0-6.313-2.881-6.313-6.431
	S6.706,9.32,10.181,9.32c1.981,0,3.3,0.844,4.056,1.569l2.762-2.662c-1.775-1.656-4.075-2.662-6.819-2.662
	C4.549,5.571-0.001,10.121-0.001,15.753s4.55,10.181,10.181,10.181c5.875,0,9.775-4.131,9.775-9.95c0-0.669-0.075-1.181-0.163-1.688
	h-9.613L10.181,14.294z"/>
<path fill="#CDC6C1" d="M32,14h-3v-3h-3v3h-3v3h3v3h3v-3h3V14z"/>
</svg>
