<?xml version="1.0" encoding="utf-8"?>
<!-- Generator: Adobe Illustrator 16.0.0, SVG Export Plug-In . SVG Version: 6.00 Build 0)  -->
<!DOCTYPE svg PUBLIC "-//W3C//DTD SVG 1.1//EN" "http://www.w3.org/Graphics/SVG/1.1/DTD/svg11.dtd">
<svg version="1.1" id="Layer_1" xmlns="http://www.w3.org/2000/svg" xmlns:xlink="http://www.w3.org/1999/xlink" x="0px" y="0px"
	 width="32px" height="32px" viewBox="0 0 32 32" enable-background="new 0 0 32 32" xml:space="preserve">
<title>instagram</title>
<path fill="#CDC6C1" d="M16,2.881c4.275,0,4.781,0.019,6.462,0.094c1.563,0.069,2.406,0.331,2.97,0.55
	c0.743,0.288,1.28,0.638,1.836,1.194c0.563,0.563,0.906,1.094,1.2,1.838c0.22,0.563,0.481,1.412,0.55,2.969
	c0.075,1.688,0.094,2.194,0.094,6.463c0,4.269-0.019,4.78-0.094,6.463c-0.068,1.563-0.33,2.405-0.55,2.969
	c-0.288,0.744-0.637,1.281-1.194,1.837c-0.563,0.563-1.094,0.906-1.836,1.2c-0.563,0.219-1.414,0.481-2.97,0.55
	c-1.688,0.075-2.194,0.094-6.463,0.094c-4.269,0-4.781-0.019-6.463-0.094c-1.563-0.068-2.406-0.331-2.969-0.55
	c-0.744-0.288-1.281-0.638-1.838-1.194c-0.563-0.563-0.906-1.094-1.2-1.837c-0.219-0.563-0.481-1.413-0.55-2.969
	c-0.075-1.688-0.094-2.194-0.094-6.463c0-4.269,0.019-4.781,0.094-6.463c0.069-1.563,0.331-2.406,0.55-2.969
	c0.288-0.744,0.638-1.281,1.194-1.838c0.563-0.563,1.094-0.906,1.838-1.2c0.563-0.219,1.412-0.481,2.969-0.55
	C11.217,2.9,11.724,2.881,16,2.881L16,2.881z M16,0c-4.344,0-4.887,0.019-6.594,0.094c-1.7,0.075-2.869,0.35-3.881,0.744
	c-1.056,0.412-1.95,0.956-2.837,1.85C1.794,3.576,1.25,4.469,0.838,5.519C0.444,6.538,0.169,7.7,0.094,9.4
	C0.019,11.113,0,11.656,0,16s0.019,4.887,0.094,6.594c0.075,1.7,0.35,2.869,0.744,3.881c0.413,1.057,0.956,1.95,1.85,2.838
	c0.887,0.887,1.781,1.438,2.831,1.844C6.538,31.55,7.7,31.825,9.4,31.9c1.706,0.074,2.25,0.094,6.594,0.094
	c4.344,0,4.888-0.02,6.594-0.094c1.7-0.075,2.869-0.351,3.881-0.744c1.051-0.406,1.944-0.956,2.831-1.844
	c0.888-0.889,1.438-1.781,1.845-2.832c0.394-1.019,0.668-2.181,0.744-3.881c0.074-1.705,0.094-2.25,0.094-6.594
	s-0.02-4.887-0.094-6.594c-0.076-1.7-0.351-2.869-0.744-3.881c-0.395-1.063-0.938-1.956-1.832-2.844
	c-0.887-0.887-1.78-1.438-2.83-1.844c-1.02-0.394-2.182-0.669-3.881-0.744C20.889,0.018,20.346-0.001,16,0L16,0L16,0z"/>
<path fill="#CDC6C1" d="M16,7.781c-4.537,0-8.219,3.681-8.219,8.219s3.681,8.219,8.219,8.219s8.219-3.681,8.219-8.219
	C24.219,11.463,20.538,7.781,16,7.781z M16,21.331c-2.944,0-5.331-2.388-5.331-5.331c0-2.944,2.387-5.331,5.331-5.331
	c2.943,0,5.331,2.387,5.331,5.331C21.331,18.943,18.943,21.331,16,21.331z"/>
<path fill="#CDC6C1" d="M26.462,7.456c0,1.06-0.858,1.919-1.919,1.919s-1.919-0.859-1.919-1.919s0.858-1.919,1.919-1.919
	S26.462,6.396,26.462,7.456z"/>
</svg>
