<?xml version="1.0" encoding="utf-8"?>
<!-- Generator: Adobe Illustrator 16.0.0, SVG Export Plug-In . SVG Version: 6.00 Build 0)  -->
<!DOCTYPE svg PUBLIC "-//W3C//DTD SVG 1.1//EN" "http://www.w3.org/Graphics/SVG/1.1/DTD/svg11.dtd">
<svg version="1.1" id="Layer_1" xmlns="http://www.w3.org/2000/svg" xmlns:xlink="http://www.w3.org/1999/xlink" x="0px" y="0px"
	 width="1462.896px" height="250.834px" viewBox="1.052 21.027 1462.896 250.834"
	 enable-background="new 1.052 21.027 1462.896 250.834" xml:space="preserve">
<path fill="#CFB56A" d="M428.567,21.027c72.325,0,128.165,45.771,128.165,119.929c0,71.399-53.097,130.903-129.993,130.903
	c-87.882,0-126.334-67.743-126.334-125.417C300.405,94.259,339.77,21.027,428.567,21.027 M434.979,257.215
	c28.375,0,85.133-18.309,85.133-107.103c0-68.663-43.941-115.352-94.291-115.352c-53.094,0-89.713,35.7-90.626,102.527
	C336.107,206.868,377.305,257.215,434.979,257.215z M631.798,243.482c1.828-13.735,1.828-38.452,1.828-69.571v-55.844
	c0-50.351,0-58.59-0.913-68.655V26.521c3.662,0,41.195-0.917,60.419-0.917c32.043,0,92.457-2.743,130.918,36.616
	c16.476,16.478,31.119,43.027,31.119,81.479c0,40.283-16.479,71.406-34.79,89.718c-13.726,14.646-44.854,36.615-99.784,36.615
	c-27.463,0-86.97-3.662-89.713-3.662L631.798,243.482 M665.67,152.855c0,33.864,0,63.167,0.918,69.569
	c0,8.239,1.831,18.314,4.575,21.977c3.665,6.412,11.9,12.813,50.346,12.813c30.21,0,53.1-8.235,72.32-27.467
	c16.478-16.478,25.636-46.68,25.636-75.981c0-40.279-17.396-66.83-30.205-80.556c-31.127-32.953-63.171-34.788-101.617-34.788
	c-6.41,0-14.646,0.918-17.396,1.835c-2.747,0.916-3.659,2.744-3.659,6.402c0,10.993,0,41.195,0,65.912v40.284H665.67z
	 M929.32,243.482c1.834-13.735,1.834-38.452,1.834-69.571v-55.844c0-50.351,0-58.59-0.918-68.655l-1.834-23.808
	c4.586,0,12.823,0.917,19.229,0.917c4.58,0,13.726-0.917,17.394-0.917l-0.918,23.808c-0.916,10.065-0.916,19.223-0.916,68.655
	v55.845c0,31.119,0,55.836,1.834,69.57l1.836,22.89c-7.331,0-10.99-0.914-20.147-0.914c-8.239,0-13.726,1.832-19.228,0.914
	L929.32,243.482z M191.467,185.811c0-25.632,0-38.45,0-38.45c5.49,0,10.067,0.917,16.475,0.917c4.581,0,11.901-0.917,17.396-0.917
	v23.799c-0.916,10.072-0.916,20.147-0.916,32.956v35.705c0,14.645,0,14.645-4.58,17.395c-20.14,10.984-52.18,14.646-70.489,14.646
	c-30.212,0-77.813-5.488-109.853-35.697C21.188,217.85,1.052,185.811,1.052,146.443c0-51.267,25.635-86.966,54.011-105.271
	c28.382-18.311,64.078-20.145,88.801-20.145c20.14,0,43.941,4.577,50.35,5.494c6.408,1.827,18.309,2.745,25.629,2.745
	c2.75,0,3.665,1.835,3.665,2.75c0,4.571-1.828,1.828-1.828,34.781c0,3.662-3.668,1.837-7.33-1.825c0,0-4.577-3.669-7.321-5.496
	c-10.985-10.065-32.958-24.717-74.151-24.717c-20.14,0-42.113,1.828-64.084,19.223C50.483,68.634,36.757,97.928,36.757,135.46
	c0,44.856,22.883,77.81,33.872,88.801c25.629,24.718,50.35,32.038,80.556,32.954c11.904,0,25.632-0.916,32.959-5.496
	c5.493-2.74,7.323-6.398,7.323-11.898V185.811z M1228.677,25.604c1.827,0,10.063,0.917,13.734,0.917c1.825,0,1.825,0,11.899,0
	l-15.57,37.533c-3.653,9.156-20.128,46.689-37.524,86.967c-20.147,46.689-34.786,81.479-42.11,97.042
	c-9.156,19.228-10.99,23.797-13.733,23.797c-3.662,0-6.411-4.569-11.898-20.141L1053.82,55.817l-11.893-30.213
	c5.487,0,16.477,0.917,20.128,0.917c3.671,0,16.479-0.917,20.146-0.917c0,0,8.238,26.551,12.81,39.369l58.598,153.792
	c18.307-43.021,59.496-144.638,65.91-167.526C1222.263,45.744,1228.677,25.604,1228.677,25.604z M1424.578,253.555l-27.457-73.238
	c-0.919-0.918-0.919-1.837-2.743-1.837h-68.662c-1.833,0-2.752,0.919-3.67,2.752l-18.303,50.35
	c-2.744,8.238-12.816,34.79-12.816,34.79s-6.405,0-10.076,0c-3.648,0-9.153,0.918-12.808,0l13.727-34.79l75.066-197.737
	c3.667-10.984,6.41-12.818,8.238-12.818c1.834,0,4.586,2.751,8.238,11.908c4.587,11.892,55.846,142.81,75.066,191.326l15.568,42.11
	c-4.577,0-12.819,0-35.699-0.914L1424.578,253.555 M1389.791,163.837c1.834,0,1.834-0.915,0.916-1.834l-29.285-86.05
	c-0.919-2.744-1.834-2.744-3.668,0l-28.379,86.05c-0.918,1.834,0,1.834,0.913,1.834H1389.791z"/>
</svg>
