<?xml version="1.0" encoding="utf-8"?>
<!-- Generator: Adobe Illustrator 16.0.0, SVG Export Plug-In . SVG Version: 6.00 Build 0)  -->
<!DOCTYPE svg PUBLIC "-//W3C//DTD SVG 1.1//EN" "http://www.w3.org/Graphics/SVG/1.1/DTD/svg11.dtd">
<svg version="1.1" id="Layer_1" xmlns="http://www.w3.org/2000/svg" xmlns:xlink="http://www.w3.org/1999/xlink" x="0px" y="0px"
	 width="14px" height="10px" viewBox="3 5 14 10" enable-background="new 3 5 14 10" xml:space="preserve">
<title>menu</title>
<path opacity="0.5" fill="#CFB56A" d="M16.4,9.05H3.6C3.048,9.05,3,9.475,3,10s0.048,0.95,0.6,0.95h12.8c0.552,0,0.6-0.425,0.6-0.95
	S16.952,9.05,16.4,9.05z"/>
<path fill="#CFB56A" d="M16.4,13.1H3.6c-0.552,0-0.6,0.425-0.6,0.95S3.048,15,3.6,15h12.8c0.552,0,0.6-0.425,0.6-0.95
	S16.952,13.1,16.4,13.1z"/>
<path fill="#CFB56A" d="M3.6,6.9h12.8c0.552,0,0.6-0.425,0.6-0.95S16.952,5,16.4,5H3.6C3.048,5,3,5.425,3,5.95S3.048,6.9,3.6,6.9z"
	/>
</svg>
