<?xml version="1.0" encoding="utf-8"?>
<!-- Generator: Adobe Illustrator 16.0.0, SVG Export Plug-In . SVG Version: 6.00 Build 0)  -->
<!DOCTYPE svg PUBLIC "-//W3C//DTD SVG 1.1//EN" "http://www.w3.org/Graphics/SVG/1.1/DTD/svg11.dtd">
<svg version="1.1" id="Layer_1" xmlns="http://www.w3.org/2000/svg" xmlns:xlink="http://www.w3.org/1999/xlink" x="0px" y="0px"
	 width="32px" height="32px" viewBox="0 0 32 32" enable-background="new 0 0 32 32" xml:space="preserve">
<title>pinterest2</title>
<path fill="#CDC6C1" d="M16,0C7.175,0,0,7.175,0,16s7.175,16,16,16s16-7.175,16-16S24.825,0,16,0z M16,29.863
	c-1.431,0-2.806-0.219-4.106-0.619c0.563-0.919,1.412-2.432,1.725-3.631c0.169-0.65,0.863-3.295,0.863-3.295
	c0.45,0.863,1.775,1.595,3.175,1.595c4.181,0,7.194-3.845,7.194-8.625c0-4.581-3.738-8.006-8.544-8.006
	c-5.981,0-9.156,4.019-9.156,8.387c0,2.031,1.081,4.563,2.813,5.369c0.262,0.125,0.4,0.069,0.463-0.188
	c0.044-0.193,0.281-1.131,0.387-1.574c0.031-0.137,0.019-0.262-0.094-0.4c-0.575-0.693-1.031-1.975-1.031-3.162
	c0-3.056,2.313-6.019,6.256-6.019c3.407,0,5.788,2.319,5.788,5.637c0,3.75-1.894,6.351-4.355,6.351c-1.363,0-2.381-1.125-2.05-2.507
	c0.394-1.649,1.15-3.425,1.15-4.613c0-1.063-0.569-1.95-1.756-1.95c-1.394,0-2.506,1.438-2.506,3.369
	c0,1.225,0.412,2.056,0.412,2.056s-1.375,5.806-1.625,6.887c-0.281,1.2-0.169,2.881-0.05,3.975
	c-5.156-2.012-8.813-7.024-8.813-12.899c0-7.656,6.206-13.863,13.862-13.863c7.656,0,13.863,6.206,13.863,13.863
	c0,7.655-6.206,13.862-13.863,13.862L16,29.863z"/>
</svg>
