<?xml version="1.0" encoding="utf-8"?>
<!-- Generator: Adobe Illustrator 16.0.0, SVG Export Plug-In . SVG Version: 6.00 Build 0)  -->
<!DOCTYPE svg PUBLIC "-//W3C//DTD SVG 1.1//EN" "http://www.w3.org/Graphics/SVG/1.1/DTD/svg11.dtd">
<svg version="1.1" id="Layer_1" xmlns="http://www.w3.org/2000/svg" xmlns:xlink="http://www.w3.org/1999/xlink" x="0px" y="0px"
	 width="24px" height="24px" viewBox="0 0 24 24" enable-background="new 0 0 24 24" xml:space="preserve">
<title>search</title>
<path fill="#CDC6C1" d="M21.7,20.3L18,16.6c1.2-1.5,2-3.5,2-5.6c0-5-4-9-9-9s-9,4-9,9s4,9,9,9c2.1,0,4.1-0.7,5.6-2l3.7,3.7
	c0.2,0.2,0.5,0.3,0.7,0.3s0.5-0.1,0.7-0.3C22.1,21.3,22.1,20.7,21.7,20.3z M4,11c0-3.9,3.1-7,7-7c3.9,0,7,3.1,7,7
	c0,1.9-0.8,3.7-2,4.9l0,0l0,0c-1.3,1.3-3,2-4.9,2C7.1,18,4,14.9,4,11z"/>
</svg>
