<?xml version="1.0" encoding="utf-8"?>
<!-- Generator: Adobe Illustrator 16.0.0, SVG Export Plug-In . SVG Version: 6.00 Build 0)  -->
<!DOCTYPE svg PUBLIC "-//W3C//DTD SVG 1.1//EN" "http://www.w3.org/Graphics/SVG/1.1/DTD/svg11.dtd">
<svg version="1.1" id="Layer_1" xmlns="http://www.w3.org/2000/svg" xmlns:xlink="http://www.w3.org/1999/xlink" x="0px" y="0px"
	 width="24px" height="24px" viewBox="0 0 24 24" enable-background="new 0 0 24 24" xml:space="preserve">
<title>shopping-cart</title>
<g>
	<path fill="#CDC6C1" d="M11,21.5c0,1.105-0.895,2-2,2s-2-0.895-2-2s0.895-2,2-2S11,20.395,11,21.5z"/>
	<path fill="#CDC6C1" d="M22,21.5c0,1.105-0.895,2-2,2s-2-0.895-2-2s0.895-2,2-2S22,20.395,22,21.5z"/>
	<path fill="#CDC6C1" d="M23.8,5.9c-0.2-0.3-0.5-0.4-0.8-0.4H6.8L6,1.3C5.9,0.8,5.5,0.5,5,0.5H1c-0.6,0-1,0.4-1,1s0.4,1,1,1h3.2
		L5,6.7v0.1l1.7,8.3c0.3,1.4,1.5,2.4,2.9,2.4c0,0,0,0,0.1,0h9.7c1.5,0,2.699-1,3-2.4L24,6.7C24,6.4,24,6.1,23.8,5.9z M20.4,14.7
		c-0.102,0.5-0.5,0.8-1,0.8H9.7c-0.5,0-0.9-0.3-1-0.8L7.2,7.5h14.6L20.4,14.7z"/>
</g>
</svg>
