<?xml version="1.0" encoding="utf-8"?>
<!-- Generator: Adobe Illustrator 16.0.0, SVG Export Plug-In . SVG Version: 6.00 Build 0)  -->
<!DOCTYPE svg PUBLIC "-//W3C//DTD SVG 1.1//EN" "http://www.w3.org/Graphics/SVG/1.1/DTD/svg11.dtd">
<svg version="1.1" id="Layer_1" xmlns="http://www.w3.org/2000/svg" xmlns:xlink="http://www.w3.org/1999/xlink" x="0px" y="0px"
	 width="32px" height="32px" viewBox="0 0 32 32" enable-background="new 0 0 32 32" xml:space="preserve">
<title>twitter</title>
<path fill="#CDC6C1" d="M32,7.075C30.825,7.6,29.557,7.95,28.23,8.106c1.356-0.813,2.395-2.1,2.888-3.631
	c-1.269,0.75-2.675,1.3-4.169,1.594C25.749,4.794,24.043,4,22.154,4c-3.625,0-6.563,2.938-6.563,6.563
	c0,0.512,0.056,1.012,0.169,1.494C10.305,11.782,5.467,9.169,2.23,5.195c-0.563,0.969-0.887,2.1-0.887,3.3
	c0,2.275,1.156,4.287,2.919,5.463c-1.075-0.031-2.087-0.331-2.975-0.819c0,0.025,0,0.056,0,0.081c0,3.181,2.263,5.838,5.269,6.437
	c-0.55,0.149-1.131,0.231-1.731,0.231c-0.425,0-0.831-0.045-1.237-0.119c0.838,2.605,3.263,4.506,6.131,4.563
	c-2.25,1.762-5.075,2.813-8.156,2.813c-0.531,0-1.05-0.03-1.569-0.094c2.913,1.869,6.362,2.95,10.069,2.95
	c12.076,0,18.681-10.006,18.681-18.681c0-0.287-0.006-0.569-0.02-0.85C30.006,9.551,31.119,8.395,32,7.075L32,7.075z"/>
</svg>
