<?xml version="1.0" encoding="utf-8"?>
<!-- Generator: Adobe Illustrator 16.0.0, SVG Export Plug-In . SVG Version: 6.00 Build 0)  -->
<!DOCTYPE svg PUBLIC "-//W3C//DTD SVG 1.1//EN" "http://www.w3.org/Graphics/SVG/1.1/DTD/svg11.dtd">
<svg version="1.1" id="Layer_1" xmlns="http://www.w3.org/2000/svg" xmlns:xlink="http://www.w3.org/1999/xlink" x="0px" y="0px"
	 width="24px" height="24px" viewBox="0 0 24 24" enable-background="new 0 0 24 24" xml:space="preserve">
<title>user</title>
<path fill="#CDC6C1" d="M16,14H8c-2.8,0-5,2.2-5,5v2c0,0.6,0.4,1,1,1s1-0.4,1-1v-2c0-1.7,1.3-3,3-3h8c1.7,0,3,1.3,3,3v2
	c0,0.6,0.4,1,1,1s1-0.4,1-1v-2C21,16.2,18.8,14,16,14z"/>
<path fill="#CDC6C1" d="M12,12c2.8,0,5-2.2,5-5s-2.2-5-5-5S7,4.2,7,7S9.2,12,12,12z M12,4c1.7,0,3,1.3,3,3s-1.3,3-3,3S9,8.7,9,7
	S10.3,4,12,4z"/>
</svg>
