<?xml version="1.0" encoding="utf-8"?>
<!-- Generator: Adobe Illustrator 16.0.0, SVG Export Plug-In . SVG Version: 6.00 Build 0)  -->
<!DOCTYPE svg PUBLIC "-//W3C//DTD SVG 1.1//EN" "http://www.w3.org/Graphics/SVG/1.1/DTD/svg11.dtd">
<svg version="1.1" id="Layer_1" xmlns="http://www.w3.org/2000/svg" xmlns:xlink="http://www.w3.org/1999/xlink" x="0px" y="0px"
	 width="80px" height="32px" viewBox="0 0 80 32" enable-background="new 0 0 80 32" xml:space="preserve">
<title>youtube2</title>
<path fill="#CDC6C1" d="M10.75,5.294c0.007-0.027,0.011-0.046,0.012-0.056l0.033-0.236l-1.48-0.008
	c-1.337-0.008-1.746,0-1.783,0.034C7.514,5.044,7.053,6.798,6.23,9.974c-0.392,1.515-0.723,2.725-0.734,2.689
	c-0.011-0.036-0.481-1.766-1.044-3.843C3.889,6.742,3.418,5.031,3.404,5.017C3.385,4.998,1.592,4.989,0.141,5.001
	c-0.21,0.002-0.327-0.41,1.876,6.598c0.305,0.97,0.762,2.344,1.015,3.052c0.292,0.817,0.5,1.448,0.642,1.974
	c0.251,1.002,0.26,1.63,0.205,2.363c-0.063,0.847-0.073,6.826-0.011,6.926c0.047,0.077,2.851,0.111,3.116,0.04
	c0.042-0.013,0.071-0.054,0.09-0.279c0.066-0.194,0.071-0.968,0.071-4.18v-4.103l0.179-0.566c0.117-0.37,0.413-1.344,0.656-2.163
	c0.243-0.819,0.538-1.801,0.654-2.18c1.057-3.447,2.067-6.838,2.094-7.032L10.75,5.294L10.75,5.294z"/>
<path fill="#CDC6C1" d="M26.441,10.27l-0.001,0.214h-0.033l-0.019,5.906l-0.018,5.726l-0.458,0.467
	c-0.513,0.522-0.925,0.722-1.297,0.629c-0.405-0.103-0.395,0.056-0.429-6.712l-0.031-6.23h-2.947v0.214h-0.034v6.759
	c0,7.241,0,7.237,0.367,7.965c0.293,0.579,0.719,0.86,1.45,0.958l0,0c0.962,0.128,2-0.309,2.962-1.244l0.418-0.406v0.7
	c0,0.606,0.017,0.706,0.127,0.737c0.18,0.05,2.412,0.053,2.653,0.004l0.2-0.041v-0.207l0.034-0.007V10.23L26.441,10.27L26.441,10.27
	z"/>
<path fill="#CDC6C1" d="M18.965,13.323c-0.279-1.198-0.802-2.004-1.664-2.561c-1.353-0.875-2.897-0.967-4.331-0.259
	c-1.045,0.516-1.717,1.372-2.065,2.628c-0.041,0.15-0.072,0.275-0.095,0.463c-0.088,0.443-0.099,1.105-0.122,4.186
	c-0.035,4.748,0.019,5.313,0.614,6.392c0.583,1.058,1.794,1.833,3.112,1.993c0.397,0.048,1.201-0.027,1.663-0.155
	c1.051-0.291,2.058-1.122,2.504-2.065c0.192-0.406,0.309-0.69,0.379-1.207c0.13-0.707,0.14-1.85,0.14-4.762
	C19.1,14.259,19.088,13.853,18.965,13.323L18.965,13.323z M15.604,23c-0.247,0.188-0.679,0.27-1.031,0.195
	c-0.271-0.059-0.636-0.482-0.748-0.869c-0.14-0.482-0.151-7.187-0.03-8.502c0.199-0.658,0.756-1.002,1.364-0.838
	c0.474,0.128,0.716,0.424,0.854,1.046c0.103,0.461,0.115,1.035,0.093,4.413c-0.014,2.242-0.022,3.337-0.096,3.925
	C15.936,22.741,15.813,22.84,15.604,23L15.604,23z"/>
<path fill="#CDC6C1" d="M71.887,16.691h1.424l-0.022-1.29c-0.022-1.183-0.039-1.319-0.198-1.64
	c-0.249-0.507-0.617-0.731-1.201-0.731c-0.701,0-1.146,0.339-1.355,1.036c-0.09,0.296-0.184,2.334-0.116,2.51
	c0.038,0.098,0.241,0.116,1.47,0.116V16.691z"/>
<path fill="#CDC6C1" d="M62.369,13.757c-0.189-0.383-0.543-0.571-0.954-0.556c-0.319,0.011-0.674,0.146-1.015,0.407l-0.254,0.193
	v9.27l0.254,0.193c0.576,0.438,1.209,0.531,1.644,0.24c0.172-0.115,0.285-0.273,0.372-0.527c0.113-0.328,0.124-0.75,0.109-4.648
	C62.51,14.264,62.501,14.025,62.369,13.757L62.369,13.757z"/>
<path fill="#CDC6C1" d="M80.027,9.582c-0.284-3.401-0.51-4.505-1.211-5.923c-0.93-1.878-2.272-2.868-4.185-3.086
	c-1.478-0.168-7.041-0.405-12.188-0.52c-8.912-0.198-23.564,0.183-25.437,0.662c-0.865,0.221-1.513,0.597-2.188,1.269
	c-1.183,1.177-1.887,2.865-2.17,5.2c-0.647,5.331-0.66,11.773-0.037,17.296c0.268,2.377,0.82,3.92,1.857,5.192
	c0.647,0.794,1.761,1.47,2.758,1.67c0.7,0.142,4.201,0.337,9.3,0.521c0.76,0.026,2.771,0.073,4.47,0.104
	c3.541,0.063,10.051,0.026,13.772-0.078c2.504-0.07,7.068-0.256,7.922-0.322c0.24-0.019,0.795-0.053,1.235-0.078
	c1.478-0.083,2.417-0.393,3.3-1.086c1.143-0.897,2.027-2.557,2.4-4.502c0.354-1.84,0.59-5.117,0.639-8.838
	C80.305,13.955,80.252,12.277,80.027,9.582z M44.54,8.35l-1.656,0.02l-0.073,17.661l-1.435,0.018
	c-1.11,0.016-1.447-0.001-1.474-0.072c-0.019-0.052-0.042-4.033-0.052-8.85l-0.018-8.758l-3.234-0.041v-2.76l9.556,0.039
	l0.041,2.721l-1.655,0.02V8.35z M54.693,18.473v7.594h-2.615v-0.799c0-0.601-0.023-0.799-0.094-0.799
	c-0.051,0-0.287,0.198-0.526,0.441c-0.517,0.525-1.13,0.949-1.653,1.145c-1.082,0.405-2.111,0.17-2.551-0.586
	c-0.4-0.691-0.408-0.845-0.408-8.01v-6.58h2.613l0.02,6.196c0.02,6.088,0.022,6.2,0.168,6.448c0.193,0.328,0.488,0.416,0.957,0.287
	c0.275-0.076,0.463-0.209,0.91-0.653l0.563-0.562V10.879h2.616v7.596V18.473z M64.898,24.982c-0.229,0.513-0.744,1.016-1.164,1.14
	c-1.1,0.323-1.98,0.06-2.998-0.897c-0.316-0.297-0.61-0.537-0.654-0.537c-0.053,0-0.082,0.232-0.082,0.689v0.689h-2.616V5.572H60
	v3.343c0,1.839,0.025,3.343,0.055,3.343c0.028,0,0.305-0.244,0.612-0.541c0.707-0.683,1.298-0.981,2.049-1.038
	c1.339-0.101,2.136,0.587,2.501,2.16c0.114,0.491,0.125,1.051,0.125,5.597c0,5.537-0.001,5.56-0.443,6.545V24.982z M75.968,21.943
	c-0.022,0.57-0.092,1.223-0.153,1.453c-0.364,1.35-1.332,2.305-2.732,2.696c-1.885,0.527-3.96-0.337-4.788-1.993
	c-0.465-0.931-0.481-1.117-0.481-5.662c0-3.708,0.014-4.163,0.133-4.667c0.336-1.431,1.168-2.357,2.578-2.871
	c0.408-0.149,0.834-0.225,1.261-0.234c1.521-0.031,3.03,0.787,3.663,2.119c0.427,0.899,0.479,1.283,0.521,3.815l0.039,2.271
	L70.43,18.91l-0.02,1.525c-0.029,2.153,0.115,2.815,0.697,3.207c0.488,0.33,1.24,0.306,1.648-0.055
	c0.383-0.337,0.491-0.697,0.529-1.753l0.033-0.927h2.695l-0.043,1.035H75.968z"/>
</svg>
